<svg width="32" height="32" viewBox="0 0 32 32" fill="none" xmlns="http://www.w3.org/2000/svg">
<g clip-path="url(#clip0_229_1855)">
<g filter="url(#filter0_d_229_1855)">
<path fill-rule="evenodd" clip-rule="evenodd" d="M4.39396 27.6064H25.7086V21.7668H27.7524V27.1678C27.7503 27.8255 27.4881 28.4557 27.023 28.9208C26.5579 29.3859 25.927 29.6481 25.2693 29.6503L4.83258 29.6503C4.17485 29.6481 3.54466 29.3859 3.07956 28.9208C2.61446 28.4557 2.35223 27.8255 2.3501 27.1678V6.73044C2.35223 6.0727 2.61446 5.4425 3.07956 4.97739C3.54467 4.51228 4.17487 4.25006 4.83262 4.24792H13.1534V6.29179H4.39396V27.6064Z" fill="white"/>
<path d="M19.4311 6.72945H28.1905V15.4889C28.1905 15.8761 28.0367 16.2474 27.7629 16.5212C27.4891 16.795 27.1178 16.9488 26.7306 16.9488H20.891C20.5038 16.9488 20.1325 16.795 19.8587 16.5212C19.5849 16.2474 19.4311 15.8761 19.4311 15.4889V6.72945ZM29.6504 3.80964H26.7306L25.897 2.34973H21.7246L20.891 3.80964H17.9712V5.26954H29.6504V3.80964Z" fill="white"/>
<path d="M11.646 18.4696C11.646 18.7639 11.5845 19.0189 11.4614 19.2345C11.3383 19.4501 11.1713 19.6264 10.9603 19.7634C10.7522 19.9004 10.5178 20.0009 10.257 20.065V20.0912C10.7727 20.1553 11.164 20.3127 11.4306 20.5633C11.7002 20.8139 11.835 21.149 11.835 21.5686C11.835 21.9416 11.7427 22.2752 11.5581 22.5696C11.3764 22.8639 11.0951 23.0955 10.7141 23.2645C10.3332 23.4336 9.84236 23.5181 9.24164 23.5181C8.88706 23.5181 8.55593 23.4889 8.24824 23.4306C7.94349 23.3753 7.65631 23.2893 7.38672 23.1728V22.0232C7.66217 22.1631 7.95081 22.2694 8.25264 22.3423C8.55447 22.4122 8.83578 22.4472 9.09658 22.4472C9.58302 22.4472 9.92294 22.3641 10.1163 22.198C10.3127 22.029 10.4108 21.793 10.4108 21.4899C10.4108 21.3122 10.3654 21.1621 10.2746 21.0397C10.1837 20.9173 10.0255 20.8241 9.79987 20.76C9.57716 20.6959 9.26508 20.6638 8.86362 20.6638H8.37572V19.6279H8.87241C9.26801 19.6279 9.56837 19.5915 9.7735 19.5186C9.98155 19.4429 10.1222 19.3409 10.1955 19.2127C10.2717 19.0815 10.3098 18.9329 10.3098 18.7668C10.3098 18.5395 10.2394 18.3618 10.0988 18.2336C9.95811 18.1053 9.72368 18.0412 9.39548 18.0412C9.19035 18.0412 9.00281 18.0675 8.83285 18.1199C8.66582 18.1694 8.51491 18.2306 8.38011 18.3035C8.24531 18.3734 8.12663 18.4419 8.02407 18.5089L7.39551 17.5779C7.64752 17.3972 7.94202 17.2472 8.27901 17.1277C8.61893 17.0082 9.02332 16.9485 9.49218 16.9485C10.1544 16.9485 10.679 17.0811 11.0658 17.3462C11.4526 17.6114 11.646 17.9859 11.646 18.4696Z" fill="white"/>
<path d="M18.336 20.1743C18.336 20.894 18.1968 21.4958 17.9184 21.9795C17.643 22.4603 17.243 22.8231 16.7184 23.0678C16.1939 23.3097 15.5624 23.4306 14.824 23.4306H13.0042V17.0403H15.0218C15.6958 17.0403 16.2804 17.1598 16.7756 17.3987C17.2708 17.6347 17.6547 17.9859 17.9272 18.4521C18.1997 18.9154 18.336 19.4895 18.336 20.1743ZM16.9206 20.2092C16.9206 19.7372 16.8503 19.3496 16.7097 19.0466C16.5719 18.7406 16.3668 18.5148 16.0943 18.3691C15.8247 18.2234 15.4906 18.1505 15.0921 18.1505H14.3668V22.3117H14.9514C15.6166 22.3117 16.1104 22.1354 16.4327 21.7828C16.758 21.4302 16.9206 20.9057 16.9206 20.2092Z" fill="white"/>
</g>
</g>
<defs>
<filter id="filter0_d_229_1855" x="-13.6499" y="-13.6503" width="59.3003" height="59.3005" filterUnits="userSpaceOnUse" color-interpolation-filters="sRGB">
<feFlood flood-opacity="0" result="BackgroundImageFix"/>
<feColorMatrix in="SourceAlpha" type="matrix" values="0 0 0 0 0 0 0 0 0 0 0 0 0 0 0 0 0 0 127 0" result="hardAlpha"/>
<feOffset/>
<feGaussianBlur stdDeviation="8"/>
<feComposite in2="hardAlpha" operator="out"/>
<feColorMatrix type="matrix" values="0 0 0 0 0 0 0 0 0 0 0 0 0 0 0 0 0 0 0.2 0"/>
<feBlend mode="normal" in2="BackgroundImageFix" result="effect1_dropShadow_229_1855"/>
<feBlend mode="normal" in="SourceGraphic" in2="effect1_dropShadow_229_1855" result="shape"/>
</filter>
<clipPath id="clip0_229_1855">
<rect width="32" height="32" fill="white"/>
</clipPath>
</defs>
</svg>
