<svg width="168" height="200" viewBox="0 0 168 200" fill="none" xmlns="http://www.w3.org/2000/svg">
<g clip-path="url(#clip0_443_2212)">
<path opacity="0.2" d="M75.6149 189.82C117.1 189.82 150.73 155.707 150.73 113.627C150.73 71.5469 117.1 37.4341 75.6149 37.4341C34.1301 37.4341 0.5 71.5469 0.5 113.627C0.5 155.707 34.1301 189.82 75.6149 189.82Z" fill="#738BBF"/>
<path d="M6.35251 177.532C3.13932 170.507 1.47319 162.857 1.46998 155.113C1.46676 147.369 3.12653 139.717 6.33387 132.689C9.54121 125.662 14.2191 119.427 20.0424 114.419C25.8656 109.411 32.6944 105.75 40.0538 103.69L44.5234 120.08C39.51 121.482 34.8579 123.974 30.8906 127.385C26.9232 130.795 23.7359 135.041 21.5504 139.828C19.3648 144.614 18.2334 149.826 18.2349 155.101C18.2364 160.376 19.3708 165.587 21.5591 170.372L6.35251 177.532Z" fill="#738BBF"/>
<path d="M7.22955 200C6.30099 200.001 5.39037 199.741 4.59858 199.249C3.80678 198.757 3.16474 198.052 2.74357 197.212C1.56682 194.868 0.856762 192.312 0.653937 189.69C0.451112 187.067 0.759494 184.43 1.56147 181.928C3.18115 176.876 6.71303 172.684 11.3801 170.273C13.6911 169.079 16.2111 168.359 18.7965 168.153C21.3818 167.948 23.9818 168.26 26.4479 169.074C31.4286 170.717 35.5618 174.299 37.9384 179.034C38.2439 179.631 38.4299 180.284 38.4855 180.955C38.5411 181.626 38.4653 182.301 38.2624 182.942C38.0595 183.583 37.7336 184.177 37.3033 184.69C36.8731 185.203 36.3471 185.624 35.7557 185.929C35.1642 186.235 34.5191 186.418 33.8573 186.47C33.1955 186.521 32.5303 186.439 31.8999 186.229C31.2695 186.018 30.6864 185.683 30.1843 185.243C29.6822 184.802 29.2709 184.266 28.9742 183.664C28.3986 182.511 27.6045 181.484 26.6373 180.643C25.67 179.802 24.5487 179.162 23.3376 178.761C22.1264 178.36 20.8491 178.205 19.5789 178.306C18.3086 178.406 17.0704 178.759 15.935 179.346C14.7997 179.932 13.7895 180.74 12.9623 181.723C12.1352 182.706 11.5073 183.845 11.1146 185.074C10.7219 186.304 10.5722 187.6 10.674 188.888C10.7758 190.176 11.1271 191.432 11.7077 192.582C12.0977 193.359 12.2847 194.225 12.2508 195.097C12.2169 195.969 11.9632 196.817 11.5141 197.561C11.0649 198.305 10.4352 198.92 9.68514 199.347C8.93506 199.774 8.08962 199.999 7.22955 200Z" fill="#333333"/>
<path d="M137.227 113.117C130.162 119.237 121.614 123.333 112.466 124.979L109.514 108.238C117.648 106.751 125.024 102.456 130.391 96.0812C135.758 89.7063 138.786 81.6445 138.961 73.2632L155.722 73.6178C155.462 87.2761 150.022 100.307 140.533 110.001C139.469 111.092 138.367 112.13 137.227 113.117Z" fill="#738BBF"/>
<path d="M160.541 73.1317C157.688 75.5902 154.205 77.1757 150.498 77.7033C146.791 78.2309 143.012 77.6789 139.603 76.1116C136.193 74.5444 133.293 72.0264 131.24 68.8512C129.187 65.676 128.066 61.9744 128.007 58.1777C127.994 56.8298 128.508 55.5315 129.436 54.5663C130.363 53.6012 131.63 53.0476 132.959 53.0266C134.287 53.0056 135.57 53.5189 136.527 54.4543C137.484 55.3896 138.037 56.6711 138.066 58.0188C138.106 60.6248 139.164 63.108 141.009 64.9221C142.854 66.7362 145.334 67.7326 147.903 67.6921C150.472 67.6516 152.92 66.5775 154.709 64.7061C156.497 62.8347 157.48 60.3193 157.44 57.7133C157.419 56.3604 157.929 55.0546 158.857 54.083C159.786 53.1115 161.057 52.5539 162.39 52.5328C163.724 52.5118 165.012 53.0291 165.969 53.9708C166.927 54.9126 167.477 56.2018 167.498 57.5547C167.545 60.1858 167.077 62.8004 166.122 65.247C165.166 67.6936 163.742 69.9237 161.931 71.8082C161.486 72.2742 161.022 72.7154 160.541 73.1317Z" fill="#333333"/>
<path d="M124.666 0.389087L120.104 13.8098C120.075 13.8953 120.066 13.9866 120.078 14.0762C120.09 14.1658 120.123 14.2513 120.173 14.3257C120.224 14.4002 120.291 14.4615 120.37 14.5047C120.448 14.5479 120.535 14.5719 120.624 14.5746L123.702 14.6678C123.793 14.6705 123.881 14.695 123.96 14.7393C124.039 14.7835 124.107 14.8463 124.157 14.9223C124.208 14.9983 124.24 15.0854 124.25 15.1764C124.261 15.2674 124.25 15.3596 124.219 15.4455L119.141 29.3109C119.094 29.4406 119.094 29.5833 119.142 29.713C119.189 29.8426 119.281 29.9505 119.401 30.0172C119.52 30.0838 119.659 30.1046 119.793 30.0759C119.926 30.0471 120.045 29.9707 120.128 29.8606L132.082 13.8781C132.135 13.8073 132.171 13.725 132.188 13.6377C132.204 13.5504 132.201 13.4605 132.177 13.3748C132.154 13.2892 132.111 13.2102 132.053 13.144C131.994 13.0778 131.921 13.0263 131.84 12.9933L128.259 11.5442C128.189 11.5159 128.125 11.4737 128.072 11.4201C128.018 11.3666 127.975 11.3027 127.946 11.2322C127.917 11.1617 127.902 11.086 127.901 11.0096C127.901 10.9331 127.916 10.8574 127.945 10.7868L131.96 1.00312C131.995 0.916897 132.01 0.823253 132.002 0.730233C131.993 0.637212 131.963 0.547594 131.913 0.469075C131.863 0.390556 131.795 0.325481 131.715 0.279438C131.635 0.233395 131.545 0.20776 131.453 0.204735L125.222 5.60732e-05C125.1 -0.00392147 124.981 0.0317127 124.881 0.101729C124.781 0.171746 124.705 0.272458 124.666 0.389087Z" fill="#738BBF"/>
<path d="M8.13766 61.9825L13.4536 72.4694C13.4873 72.5363 13.5051 72.6103 13.5056 72.6854C13.506 72.7605 13.4891 72.8346 13.4561 72.9019C13.4231 72.9692 13.375 73.0276 13.3157 73.0726C13.2564 73.1176 13.1875 73.1478 13.1146 73.1608L10.595 73.6066C10.5211 73.6198 10.4513 73.6506 10.3915 73.6965C10.3316 73.7424 10.2834 73.8021 10.2508 73.8706C10.2182 73.9391 10.2021 74.0145 10.2038 74.0906C10.2056 74.1667 10.2252 74.2413 10.261 74.3082L16.0531 85.0985C16.1062 85.1995 16.122 85.3164 16.0976 85.4281C16.0733 85.5399 16.0103 85.6391 15.9202 85.7079C15.83 85.7767 15.7186 85.8106 15.606 85.8034C15.4934 85.7963 15.387 85.7485 15.3061 85.6688L3.61328 73.9629C3.56162 73.911 3.52245 73.8477 3.49882 73.7779C3.47519 73.7082 3.46773 73.6338 3.47702 73.5607C3.48631 73.4875 3.51209 73.4175 3.55238 73.3561C3.59266 73.2947 3.64636 73.2435 3.7093 73.2066L6.48416 71.5855C6.53836 71.5537 6.58581 71.5114 6.62376 71.4608C6.6617 71.4103 6.68939 71.3527 6.7052 71.2912C6.72102 71.2298 6.72466 71.1658 6.71591 71.1029C6.70715 71.04 6.68618 70.9795 6.65421 70.9249L2.21221 63.3628C2.17332 63.2961 2.15091 63.2209 2.14689 63.1436C2.14288 63.0662 2.15738 62.989 2.18916 62.9186C2.22093 62.8482 2.26904 62.7866 2.32937 62.7391C2.3897 62.6917 2.46047 62.6597 2.53562 62.646L7.63529 61.7304C7.73458 61.7127 7.83687 61.7276 7.92724 61.7729C8.01761 61.8183 8.09133 61.8917 8.13766 61.9825Z" fill="#333333"/>
<path d="M28.3331 104.718L39.4473 168.477C40.8839 176.72 45.1366 184.185 51.4589 189.564C57.7812 194.943 65.7692 197.891 74.0208 197.891C82.0657 197.891 89.8666 195.089 96.1184 189.953C102.37 184.818 106.694 177.66 108.366 169.678L121.971 104.717L28.3331 104.718Z" fill="#738BBF"/>
<path d="M75.6149 118.623C101.472 118.623 122.434 112.337 122.434 104.582C122.434 96.8279 101.472 90.5415 75.6149 90.5415C49.7576 90.5415 28.7961 96.8279 28.7961 104.582C28.7961 112.337 49.7576 118.623 75.6149 118.623Z" fill="#333333"/>
<path d="M92.2738 140.611H59.5034C56.3992 140.611 53.8828 143.164 53.8828 146.312V162.393C53.8828 165.542 56.3992 168.095 59.5034 168.095H92.2738C95.378 168.095 97.8945 165.542 97.8945 162.393V146.312C97.8945 143.164 95.378 140.611 92.2738 140.611Z" fill="#333333"/>
<path d="M72.338 154.866H70.3897C70.3897 152.263 71.5525 148.675 77.0925 146.366C80.3377 145.014 79.2634 140.018 79.2517 139.968L81.1507 139.526C81.2125 139.798 82.6088 146.205 77.8328 148.193C74.1866 149.712 72.338 151.958 72.338 154.866Z" fill="#738BBF"/>
<path d="M89.8173 169.25C87.9228 165.647 87.1321 165.718 83.7981 166.019C82.7126 166.117 81.3622 166.239 79.7135 166.239C72.3338 166.239 71.5659 160.79 71.5587 160.735L73.491 160.486L72.5247 160.611L73.4899 160.477C73.5122 160.632 74.1022 164.262 79.7129 164.262C81.2751 164.262 82.5239 164.149 83.625 164.05C87.3759 163.712 89.1357 163.754 91.5357 168.32L89.8173 169.25Z" fill="#738BBF"/>
<path d="M67.297 155.879C67.2305 155.879 67.1649 155.863 67.1058 155.832L65.0001 154.731C64.9017 154.679 64.8275 154.59 64.7938 154.483C64.7602 154.376 64.7699 154.26 64.8207 154.16C64.8715 154.06 64.9593 153.985 65.0648 153.951C65.1703 153.917 65.2849 153.926 65.3833 153.978L67.4891 155.079C67.5724 155.122 67.639 155.193 67.6779 155.28C67.7169 155.366 67.726 155.463 67.7038 155.556C67.6816 155.648 67.6295 155.73 67.5557 155.789C67.4819 155.848 67.3908 155.879 67.297 155.879Z" fill="white"/>
<path d="M64.7529 160.07C64.6555 160.07 64.5613 160.035 64.4865 159.972C64.4118 159.908 64.3612 159.82 64.3436 159.723C64.3259 159.626 64.3423 159.526 64.3899 159.44C64.4376 159.353 64.5134 159.287 64.6043 159.251L66.8189 158.396C66.9209 158.362 67.0319 158.369 67.1288 158.416C67.2258 158.463 67.3012 158.546 67.3395 158.648C67.3777 158.749 67.3759 158.862 67.3343 158.963C67.2927 159.063 67.2146 159.143 67.1161 159.187L64.9015 160.042C64.8541 160.061 64.8037 160.07 64.7529 160.07Z" fill="white"/>
<path d="M78.0714 158.33C77.9668 158.33 77.866 158.29 77.7891 158.218C77.7121 158.146 77.6646 158.047 77.6559 157.942C77.6472 157.836 77.678 157.731 77.7422 157.647C77.8063 157.563 77.8992 157.506 78.0024 157.489L80.3403 157.088C80.4492 157.07 80.5607 157.096 80.6505 157.161C80.7402 157.226 80.801 157.325 80.8194 157.435C80.8378 157.546 80.8123 157.659 80.7486 157.751C80.6849 157.842 80.5881 157.904 80.4794 157.923L78.1415 158.324C78.1183 158.328 78.0949 158.33 78.0714 158.33Z" fill="white"/>
<path d="M76.3616 155.461C76.287 155.461 76.2137 155.44 76.1495 155.402C76.0852 155.363 76.0323 155.308 75.9963 155.242C75.9602 155.175 75.9424 155.1 75.9446 155.025C75.9468 154.949 75.9689 154.875 76.0087 154.811L77.2737 152.779C77.3024 152.73 77.3402 152.688 77.3851 152.655C77.4299 152.622 77.4809 152.598 77.5349 152.585C77.5889 152.572 77.645 152.57 77.6998 152.579C77.7545 152.589 77.807 152.609 77.8539 152.639C77.9009 152.669 77.9415 152.708 77.9733 152.754C78.0051 152.801 78.0276 152.853 78.0393 152.908C78.051 152.963 78.0518 153.02 78.0416 153.075C78.0314 153.13 78.0104 153.183 77.9798 153.23L76.7148 155.263C76.6772 155.323 76.6251 155.373 76.5633 155.408C76.5016 155.442 76.4322 155.461 76.3616 155.461Z" fill="white"/>
<path d="M100.192 153.387C96.1394 153.387 92.7581 152.264 90.1151 150.035C85.232 145.916 84.7085 139.558 84.6879 139.29L86.6305 139.142L85.6592 139.216L86.6303 139.14C86.635 139.197 87.1268 144.956 91.3751 148.528C94.1583 150.867 97.9526 151.79 102.66 151.27L102.871 153.234C101.981 153.334 101.087 153.385 100.192 153.387Z" fill="#738BBF"/>
<path d="M49.3993 165.669L49.0394 163.727C56.5087 162.302 56.5032 159.15 56.4968 155.501C56.4926 153.043 56.4876 150.258 59.342 148.629C64.651 145.599 64.2257 138.732 64.221 138.663L66.1637 138.515C66.1884 138.847 66.7011 146.696 60.2972 150.35C58.5279 151.36 58.4406 152.964 58.445 155.497C58.4517 159.259 58.4598 163.941 49.3993 165.669Z" fill="#738BBF"/>
<path d="M106.974 108.963C106.936 108.963 106.899 108.96 106.863 108.952C104.754 108.522 100.775 106.694 100.811 102.849C100.808 102.096 100.984 101.353 101.325 100.684C101.666 100.014 102.162 99.4383 102.77 99.0049C102.148 97.8359 101.964 96.4782 102.252 95.1824C103.047 90.9784 107.22 90.2418 109.316 90.4412C109.462 90.4555 109.597 90.5282 109.691 90.6433C109.785 90.7583 109.83 90.9064 109.817 91.0551C109.803 91.2038 109.732 91.341 109.619 91.4367C109.506 91.5324 109.36 91.5787 109.214 91.5656C109.008 91.5464 104.148 91.1523 103.345 95.3952C103.108 96.4193 103.243 97.4956 103.724 98.427C105.791 97.4158 108.621 97.4107 109.92 98.4183C110.18 98.599 110.383 98.8529 110.503 99.1488C110.623 99.4447 110.656 99.7697 110.596 100.084C110.336 101.459 108.745 102.145 106.731 101.752C105.463 101.518 104.302 100.876 103.421 99.921C102.955 100.251 102.575 100.691 102.314 101.203C102.053 101.715 101.919 102.284 101.924 102.861C101.888 106.728 107.031 107.835 107.083 107.845C107.218 107.873 107.339 107.951 107.421 108.063C107.503 108.176 107.541 108.315 107.527 108.455C107.514 108.594 107.449 108.724 107.347 108.818C107.244 108.912 107.111 108.964 106.973 108.964L106.974 108.963ZM104.425 99.3443C105.127 100.009 106 100.459 106.942 100.643C108.27 100.901 109.372 100.569 109.505 99.8705C109.525 99.762 109.51 99.6499 109.464 99.5501C109.417 99.4503 109.341 99.368 109.245 99.3149C108.405 98.6628 106.215 98.5566 104.425 99.3443Z" fill="white"/>
<path d="M59.3955 104.722C59.2786 104.722 59.1648 104.685 59.07 104.616C58.9752 104.547 58.9043 104.449 58.8674 104.336C58.8305 104.224 58.8293 104.103 58.8642 103.989C58.899 103.876 58.968 103.777 59.0615 103.706C59.1815 103.614 61.9839 101.423 60.3905 98.7635C60.0488 98.1431 59.5126 97.6562 58.8669 97.3802C58.1711 98.9894 56.5978 100.401 55.3621 100.506C55.1016 100.541 54.8368 100.499 54.6 100.383C54.3632 100.268 54.1647 100.085 54.0289 99.8569C53.8765 99.5882 53.7992 99.2823 53.8054 98.9723C53.8115 98.6623 53.9009 98.3599 54.064 98.0976C54.6843 96.9483 56.2274 96.0892 57.7322 96.0547C57.8575 96.0525 57.9827 96.0547 58.1052 96.0629C58.175 95.6792 58.1558 95.2843 58.049 94.9094C57.9423 94.5345 57.7509 94.19 57.4901 93.9032C55.6593 91.8121 52.3534 93.7719 52.3206 93.792C52.2578 93.8299 52.1882 93.8549 52.1158 93.8656C52.0435 93.8763 51.9698 93.8724 51.8989 93.8542C51.8281 93.836 51.7614 93.8038 51.7028 93.7594C51.6442 93.7151 51.5948 93.6595 51.5574 93.5958C51.52 93.532 51.4953 93.4615 51.4848 93.3881C51.4743 93.3147 51.4781 93.2399 51.4961 93.1681C51.514 93.0962 51.5458 93.0286 51.5895 92.9692C51.6332 92.9097 51.688 92.8596 51.7508 92.8216C51.9178 92.7203 55.8878 90.372 58.3223 93.1531C58.6998 93.5717 58.9754 94.0741 59.1272 94.6201C59.2789 95.1661 59.3026 95.7406 59.1962 96.2975C60.1016 96.657 60.8586 97.3197 61.3418 98.1755C63.0395 101.007 61.0289 103.621 59.7295 104.608C59.6334 104.682 59.5161 104.722 59.3955 104.722ZM57.7256 97.1865C56.514 97.2261 55.411 97.9539 55.0395 98.6419C54.9743 98.7317 54.9343 98.8378 54.9238 98.9488C54.9132 99.0599 54.9325 99.1717 54.9796 99.2726C55.0075 99.3203 55.0565 99.3979 55.2696 99.3821C55.9674 99.3234 57.1132 98.3827 57.725 97.1865H57.7256Z" fill="white"/>
<path d="M120.348 57.7102C123.198 78.1499 104.289 90.8953 79.2723 94.4835C54.2554 98.0718 32.6049 91.1451 29.7554 70.7041C26.906 50.263 43.9367 24.0483 68.9533 20.4601C93.9699 16.8719 117.499 37.2692 120.348 57.7102Z" fill="#738BBF"/>
<path d="M96.3494 35.852L70.5841 39.5474C62.5078 40.7058 56.8864 48.2859 58.0284 56.478C59.1703 64.6702 66.6431 70.3723 74.7194 69.2139L100.485 65.5185C108.561 64.3602 114.182 56.7801 113.04 48.5879C111.898 40.3958 104.426 34.6937 96.3494 35.852Z" fill="white"/>
<path d="M66.7373 4.6421L64.7394 5.03052L68.598 25.4511L70.5958 25.0627L66.7373 4.6421Z" fill="#738BBF"/>
<path d="M66.024 10.118C68.0773 10.118 69.7418 8.42962 69.7418 6.34686C69.7418 4.2641 68.0773 2.57568 66.024 2.57568C63.9707 2.57568 62.3062 4.2641 62.3062 6.34686C62.3062 8.42962 63.9707 10.118 66.024 10.118Z" fill="#333333"/>
<path d="M79.979 59.9001C79.6174 59.9002 79.2656 59.7806 78.977 59.5596L68.0359 51.2124C67.8576 51.0799 67.7069 50.9127 67.5927 50.7207C67.4785 50.5287 67.403 50.3155 67.3706 50.0937C67.3383 49.8718 67.3497 49.6457 67.4042 49.4283C67.4587 49.2109 67.5552 49.0067 67.6881 48.8275C67.821 48.6483 67.9877 48.4976 68.1784 48.3842C68.3692 48.2709 68.5803 48.197 68.7994 48.1671C69.0185 48.1371 69.2413 48.1515 69.4549 48.2096C69.6684 48.2676 69.8685 48.3681 70.0435 48.5053L80.984 56.853C81.2646 57.0665 81.4718 57.3642 81.5762 57.7038C81.6807 58.0435 81.677 58.4079 81.5658 58.7453C81.4546 59.0827 81.2414 59.376 80.9566 59.5837C80.6718 59.7913 80.3297 59.9027 79.979 59.902V59.9001Z" fill="#333333"/>
<path d="M70.3933 61.2746C70.0831 61.2743 69.7791 61.1864 69.5154 61.0207C69.2516 60.855 69.0386 60.6181 68.9002 60.3365C68.7618 60.0549 68.7034 59.7397 68.7317 59.4264C68.7599 59.113 68.8737 58.8138 69.0602 58.5624L77.2904 47.4645C77.5581 47.1096 77.9532 46.8763 78.3897 46.8155C78.8262 46.7548 79.2686 46.8714 79.6207 47.1401C79.9728 47.4088 80.2059 47.8077 80.2693 48.2499C80.3327 48.6921 80.2212 49.1419 79.9592 49.5012L71.7293 60.599C71.5736 60.8091 71.3719 60.9796 71.14 61.0969C70.9081 61.2141 70.6524 61.275 70.3933 61.2746Z" fill="#333333"/>
<path d="M103.738 56.4914C103.377 56.4915 103.025 56.3719 102.736 56.1509L91.7959 47.8028C91.6193 47.6696 91.4703 47.5023 91.3577 47.3106C91.245 47.1188 91.1708 46.9063 91.1394 46.6854C91.1079 46.4644 91.1199 46.2393 91.1745 46.0231C91.2291 45.8068 91.3253 45.6036 91.4576 45.4252C91.5899 45.2468 91.7557 45.0967 91.9453 44.9835C92.135 44.8703 92.3449 44.7962 92.5629 44.7656C92.7809 44.7349 93.0027 44.7483 93.2156 44.8049C93.4285 44.8615 93.6283 44.9602 93.8034 45.0954L104.744 53.4435C105.025 53.657 105.232 53.9546 105.336 54.2943C105.441 54.6339 105.437 54.9983 105.326 55.3357C105.215 55.6732 105.001 55.9665 104.717 56.1741C104.432 56.3818 104.09 56.4931 103.739 56.4925L103.738 56.4914Z" fill="#333333"/>
<path d="M94.1533 57.8665C93.843 57.8663 93.539 57.7785 93.2752 57.6128C93.0114 57.4471 92.7984 57.2102 92.6599 56.9286C92.5214 56.647 92.4631 56.3318 92.4913 56.0184C92.5196 55.705 92.6333 55.4058 92.8198 55.1543L101.05 44.0565C101.316 43.6975 101.712 43.4604 102.151 43.3975C102.589 43.3347 103.034 43.451 103.388 43.7211C103.742 43.9912 103.976 44.3928 104.038 44.8377C104.1 45.2825 103.985 45.7341 103.719 46.0931L95.4889 57.191C95.3333 57.4011 95.1316 57.5716 94.8998 57.6888C94.6679 57.8061 94.4123 57.8669 94.1533 57.8665Z" fill="#333333"/>
<path d="M87.8477 73.8475C88.3503 73.1725 89.0316 72.6564 89.8123 72.3591C90.593 72.0619 91.4409 71.9958 92.2572 72.1686C93.0735 72.3414 93.8246 72.7459 94.4229 73.3351C95.0213 73.9242 95.4422 74.6737 95.6368 75.4962C95.6721 75.6417 95.6788 75.7929 95.6563 75.9411C95.6339 76.0892 95.5827 76.2314 95.5059 76.3594C95.4291 76.4874 95.328 76.5987 95.2086 76.687C95.0892 76.7752 94.9537 76.8386 94.81 76.8736C94.6663 76.9085 94.5173 76.9143 94.3714 76.8905C94.2255 76.8668 94.0857 76.814 93.9599 76.7353C93.8342 76.6565 93.7251 76.5533 93.6389 76.4316C93.5527 76.3099 93.491 76.1721 93.4575 76.0261C93.3914 75.7466 93.2717 75.483 93.1052 75.2503C92.9387 75.0177 92.7286 74.8206 92.487 74.6703C92.2454 74.5201 91.977 74.4195 91.6971 74.3745C91.4172 74.3294 91.1312 74.3407 90.8556 74.4078C90.58 74.4748 90.3201 74.5962 90.0908 74.7651C89.8615 74.9341 89.6672 75.1471 89.519 75.3922C89.3709 75.6373 89.2718 75.9095 89.2273 76.1935C89.1829 76.4774 89.1941 76.7674 89.2602 77.047C89.3273 77.3393 89.2777 77.6468 89.1222 77.9022C88.9666 78.1575 88.7178 78.3402 88.4301 78.4101C88.1423 78.4801 87.8389 78.4318 87.5861 78.2757C87.3334 78.1195 87.1517 77.8683 87.0809 77.5769C86.9448 77.0071 86.9215 76.4156 87.0122 75.8366C87.103 75.2576 87.3061 74.7026 87.6097 74.2038C87.6836 74.0807 87.7629 73.9619 87.8477 73.8475Z" fill="#333333"/>
</g>
<defs>
<clipPath id="clip0_443_2212">
<rect width="167" height="200" fill="white" transform="translate(0.5)"/>
</clipPath>
</defs>
</svg>
