<svg width="200" height="201" viewBox="0 0 200 201" fill="none" xmlns="http://www.w3.org/2000/svg">
<g clip-path="url(#clip0_857_1787)">
<path opacity="0.1" d="M100 200C155.229 200 200 155.229 200 100C200 44.7716 155.229 0 100 0C44.7716 0 0 44.7716 0 100C0 155.229 44.7716 200 100 200Z" fill="#9C9C9C"/>
<path d="M56.7352 70.0048C57.0968 69.5995 57.5346 69.2693 58.0237 69.0332C58.5129 68.797 59.0437 68.6595 59.586 68.6286C60.1283 68.5976 60.6714 68.6737 61.1842 68.8526C61.6971 69.0315 62.1697 69.3096 62.575 69.6712L75.7748 81.4442L70.2685 87.6179L57.0687 75.8449C56.6633 75.4833 56.3331 75.0455 56.097 74.5563C55.8608 74.0671 55.7233 73.5362 55.6924 72.9939C55.6614 72.4516 55.7376 71.9085 55.9165 71.3957C56.0954 70.8828 56.3736 70.4102 56.7352 70.0048Z" fill="white"/>
<path d="M70.3007 88.1938L56.797 76.1492C56.3516 75.7519 55.9888 75.2709 55.7294 74.7334C55.4699 74.196 55.3188 73.6127 55.2847 73.0168C55.2507 72.421 55.3343 71.8243 55.5309 71.2608C55.7274 70.6973 56.0331 70.178 56.4303 69.7326C56.8275 69.2872 57.3086 68.9244 57.8461 68.6649C58.3835 68.4054 58.9668 68.2543 59.5627 68.2203C60.1585 68.1862 60.7552 68.2699 61.3187 68.4664C61.8822 68.663 62.4015 68.9686 62.8469 69.3659L76.3521 81.4108L70.3007 88.1938ZM59.8256 69.0296C59.7533 69.0296 59.6808 69.0316 59.6081 69.0357C58.8721 69.0779 58.165 69.3375 57.5765 69.7815C56.9879 70.2256 56.5442 70.8342 56.3015 71.5304C56.0588 72.2266 56.028 72.9791 56.213 73.6928C56.398 74.4065 56.7904 75.0493 57.3407 75.54L70.2358 87.0412L75.1982 81.4775L62.3032 69.9763C61.623 69.3657 60.7409 69.0284 59.8268 69.0296H59.8256Z" fill="#333333"/>
<path d="M129.73 87.6172L124.224 81.4437L137.423 69.6707C138.242 68.9406 139.317 68.5655 140.412 68.6281C141.508 68.6907 142.533 69.1857 143.263 70.0044C143.993 70.823 144.368 71.8982 144.306 72.9934C144.243 74.0886 143.748 75.114 142.93 75.8442L129.73 87.6172Z" fill="white"/>
<path d="M129.698 88.1938L123.648 81.4108L137.153 69.3659C138.053 68.5636 139.234 68.1515 140.437 68.2203C141.641 68.2891 142.767 68.8331 143.57 69.7326C144.372 70.6321 144.784 71.8135 144.715 73.0168C144.646 74.2202 144.102 75.3469 143.203 76.1492L129.698 88.1938ZM124.802 81.4769L129.764 87.0406L142.659 75.54C143.025 75.2142 143.322 74.8196 143.535 74.3787C143.748 73.9379 143.872 73.4594 143.9 72.9707C143.927 72.482 143.859 71.9926 143.698 71.5303C143.536 71.0681 143.286 70.6422 142.96 70.2769C142.634 69.9116 142.239 69.614 141.799 69.4012C141.358 69.1884 140.879 69.0645 140.391 69.0366C139.902 69.0086 139.412 69.0773 138.95 69.2385C138.488 69.3997 138.062 69.6504 137.697 69.9763L124.802 81.4769Z" fill="#333333"/>
<path d="M135.227 95.275C138.172 108.314 142.203 116.702 140.195 121.52C139.14 124.053 136.975 126.176 133.39 126.176C127.802 126.176 127.802 119.586 122.213 119.586C116.625 119.586 116.626 126.176 111.038 126.176C105.45 126.176 105.451 119.586 99.8636 119.586C94.2764 119.586 94.2761 126.176 88.6886 126.176C83.1011 126.176 83.1014 119.586 77.5142 119.586C71.927 119.586 71.9277 126.176 66.3411 126.176C63.024 126.176 61.1489 124.223 59.9598 121.965C57.1021 116.541 63.7624 104.607 66.3411 94.0822C69.1903 82.4528 68.9502 67.9674 69.3325 59.231C70.0699 42.3833 83.0021 28.6963 99.8673 28.6963C116.732 28.6963 129.174 42.4119 130.402 59.231C131.064 68.2982 132.532 83.3392 135.227 95.275Z" fill="white"/>
<path d="M133.39 126.588C130.405 126.588 128.922 124.839 127.487 123.146C126.114 121.526 124.817 119.997 122.213 119.997C119.61 119.997 118.314 121.526 116.94 123.146C115.506 124.838 114.022 126.588 111.038 126.588C108.054 126.588 106.571 124.839 105.137 123.146C103.763 121.526 102.466 119.997 99.8636 119.997C97.2612 119.997 95.9648 121.526 94.5905 123.146C93.1561 124.838 91.6734 126.588 88.6886 126.588C85.7039 126.588 84.2205 124.839 82.7889 123.148C81.4155 121.528 80.1185 119.998 77.5158 119.998C74.913 119.998 73.6169 121.528 72.2432 123.148C70.8095 124.839 69.3267 126.59 66.3426 126.59C63.3743 126.59 61.1678 125.141 59.5967 122.159C57.6044 118.377 59.9973 111.691 62.5312 104.614C63.7895 101.098 65.0898 97.4632 65.9427 93.9869C68.2213 84.6861 68.5098 73.7575 68.7413 64.9757C68.7958 62.8987 68.8476 60.9365 68.924 59.2155C69.2896 50.876 72.6054 43.1143 78.262 37.3596C81.0735 34.4785 84.4346 32.1909 88.1463 30.6326C91.858 29.0742 95.8448 28.2766 99.8703 28.2872C103.87 28.2777 107.83 29.0777 111.512 30.639C115.194 32.2003 118.523 34.4906 121.296 37.3721C126.822 43.0616 130.203 50.8154 130.816 59.2036C131.407 67.2919 132.817 82.7211 135.632 95.187C136.587 99.4151 137.655 103.15 138.598 106.445C140.566 113.326 141.989 118.297 140.578 121.681C139.812 123.513 137.862 126.588 133.39 126.588ZM122.213 119.174C125.198 119.174 126.681 120.923 128.116 122.616C129.489 124.236 130.787 125.765 133.39 125.765C137.385 125.765 139.13 123.007 139.815 121.363C141.115 118.245 139.724 113.39 137.803 106.67C136.859 103.364 135.785 99.6179 134.826 95.3673C131.999 82.8484 130.584 67.3732 129.991 59.2624C128.736 42.0723 115.785 29.1093 99.867 29.1093C83.7155 29.1093 70.4836 42.3485 69.7425 59.2502C69.6676 60.9639 69.6158 62.9224 69.5597 64.9958C69.3395 73.3515 69.0377 84.7945 66.738 94.1815C65.8763 97.699 64.5674 101.355 63.3021 104.89C60.8313 111.793 58.4974 118.313 60.3211 121.774C61.7362 124.46 63.7042 125.764 66.338 125.764C68.9405 125.764 70.2369 124.235 71.6106 122.615C73.0443 120.923 74.5271 119.173 77.5112 119.173C80.4953 119.173 81.9787 120.922 83.4124 122.615C84.7858 124.235 86.0828 125.764 88.6856 125.764C91.2883 125.764 92.5859 124.234 93.959 122.615C95.3934 120.923 96.8761 119.173 99.8606 119.173C102.845 119.173 104.328 120.922 105.762 122.615C107.135 124.235 108.432 125.764 111.035 125.764C113.638 125.764 114.935 124.234 116.309 122.615C117.746 120.924 119.229 119.174 122.213 119.174Z" fill="#333333"/>
<path d="M88.3932 61.201C90.2625 61.201 91.7779 59.6856 91.7779 57.8163C91.7779 55.947 90.2625 54.4316 88.3932 54.4316C86.5239 54.4316 85.0085 55.947 85.0085 57.8163C85.0085 59.6856 86.5239 61.201 88.3932 61.201Z" fill="#333333"/>
<path d="M111.602 61.201C113.472 61.201 114.987 59.6856 114.987 57.8163C114.987 55.947 113.472 54.4316 111.602 54.4316C109.733 54.4316 108.218 55.947 108.218 57.8163C108.218 59.6856 109.733 61.201 111.602 61.201Z" fill="#333333"/>
<path d="M106.06 66.9512C106.255 66.9507 106.448 66.9938 106.625 67.0773C106.802 67.1608 106.957 67.2826 107.081 67.4338C107.205 67.5851 107.293 67.762 107.34 67.9517C107.386 68.1414 107.39 68.3392 107.351 68.5305C106.625 71.924 103.609 74.0571 99.9988 74.0571C96.3885 74.0571 93.3727 71.9249 92.6471 68.5305C92.6077 68.3391 92.6115 68.1414 92.6581 67.9517C92.7048 67.7619 92.7932 67.585 92.9168 67.4337C93.0404 67.2824 93.1963 67.1606 93.3729 67.0772C93.5496 66.9937 93.7426 66.9507 93.938 66.9512H106.06Z" fill="white"/>
<path d="M99.9986 74.4693C96.1089 74.4693 92.9929 72.1175 92.2442 68.6168C92.1909 68.3676 92.1942 68.1096 92.2539 67.8618C92.3136 67.6141 92.4281 67.3829 92.589 67.1852C92.7512 66.9837 92.9567 66.8212 93.1901 66.7097C93.4235 66.5982 93.6791 66.5405 93.9378 66.541H106.061C106.319 66.5406 106.575 66.5983 106.808 66.7098C107.042 66.8213 107.247 66.9838 107.409 67.1852C107.57 67.3829 107.685 67.6141 107.744 67.8619C107.804 68.1096 107.807 68.3676 107.754 68.6168C107.004 72.1175 103.887 74.4693 99.9986 74.4693ZM93.9372 67.3634C93.8012 67.3633 93.667 67.3937 93.5444 67.4523C93.4218 67.5109 93.3139 67.5963 93.2287 67.7021C93.1451 67.8046 93.0856 67.9245 93.0545 68.053C93.0235 68.1816 93.0217 68.3154 93.0493 68.4447C93.7142 71.5556 96.5067 73.6457 99.998 73.6457C103.489 73.6457 106.282 71.5556 106.947 68.4447C106.975 68.3154 106.973 68.1815 106.941 68.053C106.91 67.9244 106.851 67.8045 106.767 67.7021C106.682 67.5963 106.574 67.5109 106.451 67.4523C106.329 67.3936 106.195 67.3633 106.059 67.3634H93.9372Z" fill="#333333"/>
<path d="M179.559 160.593C161.289 184.546 132.45 200.002 100.002 200.002C67.553 200.002 38.714 184.546 20.4443 160.593C41.3 152.747 69.2618 147.949 100.002 147.949C130.741 147.949 158.702 152.747 179.559 160.593Z" fill="#9C9C9C"/>
<path d="M187.952 52.3739L136.63 52.1546C136.63 43.5832 141.458 41.8958 146.59 40.5038C151.723 39.1118 154.032 29.6906 162.95 29.1546C168.217 28.8378 170.979 30.1932 173.267 31.9386C173.27 31.9416 173.27 31.9447 173.273 31.9447C179.004 38.1112 183.936 44.9749 187.952 52.3739Z" fill="white"/>
<path d="M41.5569 116.062L1.31378 116.235C0.626387 112.033 0.20925 107.792 0.0649414 103.537C8.87993 102.288 7.97833 95.2821 18.5051 95.9187C26.315 96.3878 28.3436 104.639 32.8363 105.858C37.3291 107.076 41.5569 108.558 41.5569 116.062Z" fill="white"/>
</g>
<defs>
<clipPath id="clip0_857_1787">
<rect width="200" height="200.002" fill="white"/>
</clipPath>
</defs>
</svg>
