<svg width="150" height="48" viewBox="0 0 150 48" fill="none" xmlns="http://www.w3.org/2000/svg">
<path d="M104.208 3.5293H45.555C43.1492 3.52913 40.8061 3.78308 38.8675 4.2541C36.929 4.72512 35.4963 5.38856 34.7786 6.14768L4.20643 38.4887C3.67811 39.0475 3.55488 39.6395 3.8467 40.2169C4.13852 40.7943 4.8372 41.341 5.88626 41.8126C6.93533 42.2843 8.30535 42.6677 9.8856 42.9319C11.4658 43.1962 13.212 43.3338 14.9829 43.3337H134.781C136.551 43.3338 138.298 43.1962 139.878 42.9319C141.458 42.6677 142.828 42.2843 143.877 41.8126C144.926 41.341 145.625 40.7943 145.917 40.2169C146.209 39.6395 146.085 39.0475 145.557 38.4887L114.985 6.14768C114.267 5.38856 112.834 4.72512 110.896 4.2541C108.957 3.78308 106.614 3.52913 104.208 3.5293Z" stroke="white" stroke-width="3"/>
<circle cx="74.8818" cy="23.4316" r="6" fill="white"/>
</svg>
