<svg width="32" height="32" viewBox="0 0 32 32" fill="none" xmlns="http://www.w3.org/2000/svg">
<g clip-path="url(#clip0_1388_5708)">
<g filter="url(#filter0_d_1388_5708)">
<path fill-rule="evenodd" clip-rule="evenodd" d="M4.39372 27.6065H25.7083V21.7669H27.7522V27.1679C27.7501 27.8256 27.4878 28.4558 27.0227 28.9209C26.5576 29.386 25.9268 29.6483 25.2691 29.6504L4.83233 29.6504C4.1746 29.6483 3.54442 29.386 3.07932 28.9209C2.61421 28.4558 2.35198 27.8256 2.34985 27.1679V6.73056C2.35198 6.07282 2.61421 5.44262 3.07932 4.97751C3.54443 4.51241 4.17463 4.25018 4.83237 4.24805H13.1532V6.29191H4.39372V27.6065Z" fill="white"/>
<path d="M19.4307 6.72932H28.1902V15.4888C28.1902 15.8759 28.0364 16.2473 27.7626 16.5211C27.4888 16.7948 27.1174 16.9487 26.7303 16.9487H20.8906C20.5034 16.9487 20.1321 16.7948 19.8583 16.5211C19.5845 16.2473 19.4307 15.8759 19.4307 15.4888V6.72932ZM29.6501 3.80951H26.7303L25.8967 2.34961H21.7242L20.8906 3.80951H17.9708V5.26942H29.6501V3.80951Z" fill="white"/>
<path d="M11.6458 18.4693C11.6458 18.7637 11.5842 19.0186 11.4611 19.2343C11.3381 19.4499 11.171 19.6262 10.96 19.7631C10.752 19.9001 10.5176 20.0006 10.2568 20.0647V20.091C10.7725 20.1551 11.1637 20.3124 11.4304 20.563C11.7 20.8136 11.8348 21.1487 11.8348 21.5684C11.8348 21.9414 11.7425 22.275 11.5578 22.5693C11.3762 22.8636 11.0948 23.0953 10.7139 23.2643C10.333 23.4333 9.84212 23.5178 9.24139 23.5178C8.88682 23.5178 8.55569 23.4887 8.248 23.4304C7.94324 23.375 7.65607 23.2891 7.38647 23.1725V22.0229C7.66193 22.1628 7.95057 22.2692 8.2524 22.342C8.55422 22.412 8.83554 22.4469 9.09634 22.4469C9.58278 22.4469 9.9227 22.3639 10.1161 22.1978C10.3124 22.0288 10.4106 21.7927 10.4106 21.4897C10.4106 21.3119 10.3652 21.1619 10.2743 21.0395C10.1835 20.9171 10.0253 20.8238 9.79963 20.7597C9.57692 20.6956 9.26483 20.6636 8.86338 20.6636H8.37547V19.6276H8.87217C9.26777 19.6276 9.56813 19.5912 9.77325 19.5184C9.98131 19.4426 10.122 19.3406 10.1952 19.2124C10.2714 19.0813 10.3095 18.9327 10.3095 18.7666C10.3095 18.5393 10.2392 18.3615 10.0985 18.2333C9.95786 18.1051 9.72344 18.041 9.39524 18.041C9.19011 18.041 9.00257 18.0672 8.83261 18.1197C8.66558 18.1692 8.51466 18.2304 8.37987 18.3032C8.24507 18.3732 8.12639 18.4417 8.02383 18.5087L7.39527 17.5777C7.64728 17.397 7.94178 17.2469 8.27877 17.1275C8.61869 17.008 9.02308 16.9482 9.49194 16.9482C10.1542 16.9482 10.6787 17.0808 11.0655 17.346C11.4523 17.6112 11.6458 17.9856 11.6458 18.4693Z" fill="white"/>
<path d="M18.3358 20.174C18.3358 20.8938 18.1966 21.4955 17.9182 21.9792C17.6427 22.46 17.2427 22.8228 16.7182 23.0676C16.1937 23.3095 15.5622 23.4304 14.8237 23.4304H13.004V17.04H15.0215C15.6955 17.04 16.2801 17.1595 16.7753 17.3985C17.2706 17.6345 17.6545 17.9856 17.927 18.4519C18.1995 18.9152 18.3358 19.4892 18.3358 20.174ZM16.9204 20.209C16.9204 19.7369 16.8501 19.3494 16.7094 19.0463C16.5717 18.7403 16.3666 18.5145 16.094 18.3688C15.8244 18.2231 15.4904 18.1503 15.0919 18.1503H14.3666V22.3114H14.9512C15.6164 22.3114 16.1102 22.1351 16.4325 21.7825C16.7578 21.4299 16.9204 20.9054 16.9204 20.209Z" fill="white"/>
</g>
</g>
<defs>
<filter id="filter0_d_1388_5708" x="-13.6501" y="-13.6504" width="59.3002" height="59.3008" filterUnits="userSpaceOnUse" color-interpolation-filters="sRGB">
<feFlood flood-opacity="0" result="BackgroundImageFix"/>
<feColorMatrix in="SourceAlpha" type="matrix" values="0 0 0 0 0 0 0 0 0 0 0 0 0 0 0 0 0 0 127 0" result="hardAlpha"/>
<feOffset/>
<feGaussianBlur stdDeviation="8"/>
<feComposite in2="hardAlpha" operator="out"/>
<feColorMatrix type="matrix" values="0 0 0 0 0 0 0 0 0 0 0 0 0 0 0 0 0 0 0.2 0"/>
<feBlend mode="normal" in2="BackgroundImageFix" result="effect1_dropShadow_1388_5708"/>
<feBlend mode="normal" in="SourceGraphic" in2="effect1_dropShadow_1388_5708" result="shape"/>
</filter>
<clipPath id="clip0_1388_5708">
<rect width="32" height="32" fill="white"/>
</clipPath>
</defs>
</svg>
