<svg width="108" height="92" viewBox="0 0 108 92" fill="none" xmlns="http://www.w3.org/2000/svg">
<g filter="url(#filter0_d_1456_3200)">
<path d="M55.3962 17.9974C55.3948 17.169 54.7221 16.4986 53.8937 16.5C53.0653 16.5014 52.3948 17.1741 52.3962 18.0026L55.3962 17.9974ZM52.8818 45.082C53.4686 45.6668 54.4184 45.6652 55.0031 45.0784L64.5328 35.5161C65.1176 34.9294 65.1159 33.9796 64.5291 33.3948C63.9424 32.81 62.9926 32.8117 62.4078 33.3985L53.9371 41.8982L45.4373 33.4274C44.8505 32.8427 43.9008 32.8443 43.316 33.4311C42.7312 34.0178 42.7328 34.9676 43.3196 35.5524L52.8818 45.082ZM52.3962 18.0026L52.4407 44.0221L55.4407 44.017L55.3962 17.9974L52.3962 18.0026Z" fill="white"/>
<path d="M68.5003 53.1714H39.1736C37.9707 53.1713 36.7992 53.2983 35.8299 53.5338C34.8606 53.7693 34.1443 54.101 33.7854 54.4806L18.4993 70.6511C18.2352 70.9305 18.1736 71.2265 18.3195 71.5152C18.4654 71.8039 18.8147 72.0772 19.3392 72.313C19.8638 72.5489 20.5488 72.7406 21.3389 72.8727C22.129 73.0048 23.0021 73.0736 23.8876 73.0736H83.7864C84.6718 73.0736 85.5449 73.0048 86.335 72.8727C87.1252 72.7406 87.8102 72.5489 88.3347 72.313C88.8592 72.0772 89.2086 71.8039 89.3545 71.5152C89.5004 71.2265 89.4388 70.9305 89.1746 70.6511L73.8885 54.4806C73.5297 54.101 72.8134 53.7693 71.8441 53.5338C70.8748 53.2983 69.7032 53.1713 68.5003 53.1714Z" stroke="white" stroke-width="3"/>
<circle cx="53.8369" cy="63.1226" r="3" fill="white"/>
<line x1="27.1525" y1="32.4747" x2="28.4729" y2="33.8966" stroke="black"/>
</g>
<defs>
<filter id="filter0_d_1456_3200" x="0.39624" y="-8" width="107.104" height="107" filterUnits="userSpaceOnUse" color-interpolation-filters="sRGB">
<feFlood flood-opacity="0" result="BackgroundImageFix"/>
<feColorMatrix in="SourceAlpha" type="matrix" values="0 0 0 0 0 0 0 0 0 0 0 0 0 0 0 0 0 0 127 0" result="hardAlpha"/>
<feOffset/>
<feGaussianBlur stdDeviation="8"/>
<feComposite in2="hardAlpha" operator="out"/>
<feColorMatrix type="matrix" values="0 0 0 0 0 0 0 0 0 0 0 0 0 0 0 0 0 0 0.2 0"/>
<feBlend mode="normal" in2="BackgroundImageFix" result="effect1_dropShadow_1456_3200"/>
<feBlend mode="normal" in="SourceGraphic" in2="effect1_dropShadow_1456_3200" result="shape"/>
</filter>
</defs>
</svg>
