<svg width="163" height="155" viewBox="0 0 163 155" fill="none" xmlns="http://www.w3.org/2000/svg">
<path d="M111.5 103.5C111.5 105.329 110.62 107.116 108.936 108.789C107.251 110.464 104.787 111.995 101.701 113.292C95.5331 115.885 86.9769 117.5 77.5 117.5C68.0231 117.5 59.4669 115.885 53.2985 113.292C50.2133 111.995 47.7491 110.464 46.0636 108.789C44.38 107.116 43.5 105.329 43.5 103.5C43.5 101.671 44.38 99.8835 46.0636 98.2106C47.7491 96.5358 50.2133 95.0046 53.2985 93.7079C59.4669 91.1154 68.0231 89.5 77.5 89.5C86.9769 89.5 95.5331 91.1154 101.701 93.7079C104.787 95.0046 107.251 96.5358 108.936 98.2106C110.62 99.8835 111.5 101.671 111.5 103.5Z" fill="white" stroke="black"/>
<mask id="path-2-inside-1_2820_7206" fill="white">
<path d="M127 39H93.6667V104H82.5556V74H71.4444V104H60.3333V39H27V29H127M77 4C79.9468 4 82.773 5.05357 84.8567 6.92893C86.9405 8.8043 88.1111 11.3478 88.1111 14C88.1111 16.6522 86.9405 19.1957 84.8567 21.0711C82.773 22.9464 79.9468 24 77 24C74.0532 24 71.227 22.9464 69.1433 21.0711C67.0595 19.1957 65.8889 16.6522 65.8889 14C65.8889 8.45 70.8333 4 77 4Z"/>
</mask>
<path d="M127 39H93.6667V104H82.5556V74H71.4444V104H60.3333V39H27V29H127M77 4C79.9468 4 82.773 5.05357 84.8567 6.92893C86.9405 8.8043 88.1111 11.3478 88.1111 14C88.1111 16.6522 86.9405 19.1957 84.8567 21.0711C82.773 22.9464 79.9468 24 77 24C74.0532 24 71.227 22.9464 69.1433 21.0711C67.0595 19.1957 65.8889 16.6522 65.8889 14C65.8889 8.45 70.8333 4 77 4Z" fill="white"/>
<path d="M93.6667 39V38H92.6667V39H93.6667ZM93.6667 104V105H94.6667V104H93.6667ZM82.5556 104H81.5556V105H82.5556V104ZM82.5556 74H83.5556V73H82.5556V74ZM71.4444 74V73H70.4444V74H71.4444ZM71.4444 104V105H72.4444V104H71.4444ZM60.3333 104H59.3333V105H60.3333V104ZM60.3333 39H61.3333V38H60.3333V39ZM27 39H26V40H27V39ZM27 29V28H26V29H27ZM77 24V25V24ZM127 38H93.6667V40H127V38ZM92.6667 39V104H94.6667V39H92.6667ZM93.6667 103H82.5556V105H93.6667V103ZM83.5556 104V74H81.5556V104H83.5556ZM82.5556 73H71.4444V75H82.5556V73ZM70.4444 74V104H72.4444V74H70.4444ZM71.4444 103H60.3333V105H71.4444V103ZM61.3333 104V39H59.3333V104H61.3333ZM60.3333 38H27V40H60.3333V38ZM28 39V29H26V39H28ZM27 30H127V28H27V30ZM77 5C79.7136 5 82.2977 5.97116 84.1878 7.67223L85.5257 6.18564C83.2483 4.13598 80.18 3 77 3V5ZM84.1878 7.67223C86.0744 9.37017 87.1111 11.6491 87.1111 14H89.1111C89.1111 11.0466 87.8066 8.23842 85.5257 6.18564L84.1878 7.67223ZM87.1111 14C87.1111 16.3509 86.0744 18.6298 84.1878 20.3278L85.5257 21.8144C87.8066 19.7616 89.1111 16.9534 89.1111 14H87.1111ZM84.1878 20.3278C82.2977 22.0288 79.7136 23 77 23V25C80.18 25 83.2483 23.864 85.5257 21.8144L84.1878 20.3278ZM77 23C74.2864 23 71.7023 22.0288 69.8122 20.3278L68.4743 21.8144C70.7517 23.864 73.82 25 77 25V23ZM69.8122 20.3278C67.9256 18.6298 66.8889 16.3509 66.8889 14H64.8889C64.8889 16.9534 66.1934 19.7616 68.4743 21.8144L69.8122 20.3278ZM66.8889 14C66.8889 9.09878 71.2839 5 77 5V3C70.3828 3 64.8889 7.80121 64.8889 14H66.8889Z" fill="black" mask="url(#path-2-inside-1_2820_7206)"/>
<path d="M71.4041 129.479L71.0509 129.177L70.7236 129.507L67.0944 133.171L67.0494 123.628L76.5922 123.583L72.9381 127.272L72.5531 127.66L72.9748 128.009C74.8023 129.52 77.1433 130.456 79.7067 130.443L79.7067 130.443C81.9175 130.433 84.0686 129.725 85.8535 128.42C87.5034 127.214 88.7627 125.556 89.4819 123.65L91.4873 124.303C89.7175 129.105 85.1298 132.543 79.7167 132.568C76.5333 132.583 73.6418 131.396 71.4041 129.479Z" fill="white" stroke="black"/>
<path d="M41.7214 112.404L41.3213 112.604L41.4765 113.024L45.4322 123.724C46.1006 125.532 46.079 127.522 45.3715 129.315C44.6639 131.108 43.3202 132.577 41.5974 133.442C41.5974 133.442 41.5974 133.442 41.5974 133.442L41.0108 133.736C37.1781 135.658 32.7388 135.979 28.6696 134.628C24.6003 133.277 21.2344 130.365 19.3123 126.532L18.6829 125.277C17.3371 122.593 16.7653 119.588 17.0313 116.597C17.2973 113.607 18.3907 110.75 20.1891 108.346L28.12 97.7449C28.9694 96.6096 30.6808 96.2887 31.8653 97.3193C33.5589 98.7968 34.5368 100.439 34.5248 102.64L34.5248 102.641C34.5221 103.287 34.4305 103.969 34.2618 104.693L34.02 105.732L34.9729 105.254L46.0758 99.6856C47.192 99.1258 48.4849 99.0324 49.67 99.4259C50.8552 99.8193 51.8354 100.667 52.3952 101.784C52.955 102.9 53.0484 104.193 52.655 105.378C52.2615 106.563 51.4134 107.543 50.2971 108.103L41.7214 112.404Z" fill="white" stroke="black"/>
<path d="M115.621 110.901L116.04 111.058L115.93 111.491L113.127 122.549C112.654 124.418 112.886 126.395 113.779 128.103C114.672 129.811 116.163 131.13 117.968 131.807C117.968 131.807 117.968 131.807 117.968 131.807L118.582 132.038C122.597 133.544 127.045 133.394 130.949 131.621C134.852 129.847 137.892 126.595 139.398 122.581L139.891 121.266C140.946 118.456 141.197 115.407 140.616 112.461C140.036 109.516 138.646 106.79 136.604 104.59L127.597 94.8862C126.633 93.8471 124.897 93.7088 123.828 94.8588C122.3 96.507 121.501 98.2435 121.746 100.431L121.746 100.432C121.817 101.074 121.98 101.743 122.224 102.445L122.574 103.452L121.576 103.077L109.947 98.7137C108.778 98.2751 107.482 98.3188 106.345 98.8353C105.209 99.3518 104.323 100.299 103.885 101.468C103.446 102.637 103.49 103.933 104.006 105.07C104.523 106.206 105.47 107.092 106.639 107.53L115.621 110.901Z" fill="white" stroke="black"/>
</svg>
