<svg width="103" height="136" viewBox="0 0 103 136" fill="none" xmlns="http://www.w3.org/2000/svg">
<mask id="path-1-inside-1_2820_7205" fill="white">
<path d="M100 38H66.6667V103H55.5556V73H44.4444V103H33.3333V38H0V28H100M50 3C52.9468 3 55.773 4.05357 57.8567 5.92893C59.9405 7.8043 61.1111 10.3478 61.1111 13C61.1111 15.6522 59.9405 18.1957 57.8567 20.0711C55.773 21.9464 52.9468 23 50 23C47.0532 23 44.227 21.9464 42.1433 20.0711C40.0595 18.1957 38.8889 15.6522 38.8889 13C38.8889 7.45 43.8333 3 50 3Z"/>
</mask>
<path d="M100 38H66.6667V103H55.5556V73H44.4444V103H33.3333V38H0V28H100M50 3C52.9468 3 55.773 4.05357 57.8567 5.92893C59.9405 7.8043 61.1111 10.3478 61.1111 13C61.1111 15.6522 59.9405 18.1957 57.8567 20.0711C55.773 21.9464 52.9468 23 50 23C47.0532 23 44.227 21.9464 42.1433 20.0711C40.0595 18.1957 38.8889 15.6522 38.8889 13C38.8889 7.45 43.8333 3 50 3Z" fill="white"/>
<path d="M66.6667 38V37H65.6667V38H66.6667ZM66.6667 103V104H67.6667V103H66.6667ZM55.5556 103H54.5556V104H55.5556V103ZM55.5556 73H56.5556V72H55.5556V73ZM44.4444 73V72H43.4444V73H44.4444ZM44.4444 103V104H45.4444V103H44.4444ZM33.3333 103H32.3333V104H33.3333V103ZM33.3333 38H34.3333V37H33.3333V38ZM0 38H-1V39H0V38ZM0 28V27H-1V28H0ZM50 23V24V23ZM100 37H66.6667V39H100V37ZM65.6667 38V103H67.6667V38H65.6667ZM66.6667 102H55.5556V104H66.6667V102ZM56.5556 103V73H54.5556V103H56.5556ZM55.5556 72H44.4444V74H55.5556V72ZM43.4444 73V103H45.4444V73H43.4444ZM44.4444 102H33.3333V104H44.4444V102ZM34.3333 103V38H32.3333V103H34.3333ZM33.3333 37H0V39H33.3333V37ZM1 38V28H-1V38H1ZM0 29H100V27H0V29ZM50 4C52.7136 4 55.2977 4.97116 57.1878 6.67223L58.5257 5.18564C56.2483 3.13598 53.18 2 50 2V4ZM57.1878 6.67223C59.0744 8.37017 60.1111 10.6491 60.1111 13H62.1111C62.1111 10.0466 60.8066 7.23842 58.5257 5.18564L57.1878 6.67223ZM60.1111 13C60.1111 15.3509 59.0744 17.6298 57.1878 19.3278L58.5257 20.8144C60.8066 18.7616 62.1111 15.9534 62.1111 13H60.1111ZM57.1878 19.3278C55.2977 21.0288 52.7136 22 50 22V24C53.18 24 56.2483 22.864 58.5257 20.8144L57.1878 19.3278ZM50 22C47.2864 22 44.7023 21.0288 42.8122 19.3278L41.4743 20.8144C43.7517 22.864 46.82 24 50 24V22ZM42.8122 19.3278C40.9256 17.6298 39.8889 15.3509 39.8889 13H37.8889C37.8889 15.9534 39.1934 18.7616 41.4743 20.8144L42.8122 19.3278ZM39.8889 13C39.8889 8.09878 44.2839 4 50 4V2C43.3828 2 37.8889 6.80121 37.8889 13H39.8889Z" fill="black" mask="url(#path-1-inside-1_2820_7205)"/>
<g clip-path="url(#clip0_2820_7205)">
<path d="M44.4292 88.4744L44.4296 88.4752L45.8766 91.7404L46.0792 92.1975L46.5363 91.9949L49.8015 90.5479C50.1132 90.4098 50.4671 90.4011 50.7852 90.5239C51.1033 90.6466 51.3597 90.8907 51.4978 91.2025C51.636 91.5142 51.6446 91.8681 51.5219 92.1862C51.3991 92.5044 51.155 92.7607 50.8433 92.8989L47.5781 94.3458L47.121 94.5484L47.3236 95.0055L48.7705 98.2707L48.7709 98.2715C48.8745 98.5041 48.9067 98.7623 48.8634 99.0132C48.8201 99.2641 48.7032 99.4965 48.5277 99.681C48.3522 99.8654 48.1258 99.9936 47.8773 100.049C47.6289 100.105 47.3695 100.085 47.132 99.9935L47.1314 99.9933L40.0632 97.266L40.0626 97.2657C39.9048 97.2051 39.7604 97.1138 39.6379 96.9973C39.5153 96.8807 39.417 96.7412 39.3485 96.5866C39.28 96.4319 39.2426 96.2653 39.2386 96.0963C39.2346 95.9272 39.2639 95.759 39.325 95.6013L39.3252 95.6007L42.0525 88.5325L42.0527 88.5319C42.1441 88.2942 42.304 88.089 42.5121 87.9423C42.7202 87.7956 42.9672 87.714 43.2218 87.7079C43.4763 87.7017 43.727 87.7713 43.9419 87.9077C44.1569 88.0442 44.3265 88.2414 44.4292 88.4744ZM69.4369 113.686L69.7361 113.399L69.51 113.052L57.9414 95.2931C57.3907 94.4056 57.2088 93.3379 57.4349 92.3181C57.6613 91.2966 58.2789 90.4045 59.1554 89.8331C60.0318 89.2616 61.0972 89.0563 62.1232 89.2612C63.1475 89.4657 64.0511 90.0627 64.641 90.9246L73.5604 104.619L73.8334 105.038L74.2525 104.765L81.6232 99.9595C81.6232 99.9594 81.6232 99.9594 81.6233 99.9594C82.5795 99.3363 83.6491 98.9077 84.771 98.6981C85.8929 98.4884 87.0452 98.5018 88.1619 98.7376C89.2786 98.9734 90.338 99.4268 91.2794 100.072C92.2177 100.715 93.0205 101.536 93.6424 102.488L99.5171 112.513L99.5172 112.513C99.7361 112.887 99.8737 113.302 99.9209 113.732C99.9681 114.162 99.9239 114.598 99.7911 115.009C99.6583 115.421 99.44 115.8 99.1505 116.122C98.861 116.444 98.5067 116.7 98.111 116.876L98.1109 116.876L76.9464 126.255C76.5673 126.422 76.1581 126.512 75.7436 126.517C75.3291 126.522 74.9178 126.444 74.5345 126.286L74.5342 126.286L69.757 124.32C68.8907 123.964 68.1272 123.397 67.5357 122.67C66.9442 121.944 66.5435 121.081 66.3701 120.16C66.1966 119.24 66.2558 118.29 66.5423 117.398C66.8288 116.506 67.3335 115.7 68.0107 115.053L68.0111 115.052L69.4369 113.686ZM69.7416 76.4766C69.7797 76.2576 69.8738 76.0527 70.0141 75.8817L70.0803 75.8119C70.2552 75.6274 70.4808 75.4989 70.7287 75.4426C70.9765 75.3864 71.2353 75.4048 71.4726 75.4955C71.4728 75.4956 71.4729 75.4956 71.473 75.4957L78.54 78.2225L78.5406 78.2227C78.6984 78.2834 78.8428 78.3746 78.9653 78.4911C79.0879 78.6077 79.1862 78.7473 79.2547 78.9019C79.3232 79.0565 79.3606 79.2231 79.3646 79.3922C79.3686 79.5612 79.3393 79.7294 79.2782 79.8871L79.278 79.8877L76.5507 86.956L76.5504 86.9566C76.4591 87.1942 76.2992 87.3994 76.0911 87.5461C75.883 87.6928 75.636 87.7744 75.3814 87.7806C75.1269 87.7867 74.8762 87.7172 74.6613 87.5807C74.4463 87.4442 74.2767 87.247 74.1739 87.014L74.1736 87.0132L72.7266 83.7481L72.524 83.2909L72.0669 83.4935L68.8017 84.9405C68.49 85.0786 68.1361 85.0873 67.818 84.9645C67.4999 84.8418 67.2435 84.5977 67.1054 84.2859C66.9672 83.9742 66.9585 83.6203 67.0813 83.3022C67.2041 82.9841 67.4482 82.7277 67.7599 82.5896L71.0251 81.1426L71.4822 80.94L71.2796 80.4829L69.8327 77.2178C69.8327 77.2178 69.8327 77.2177 69.8326 77.2177C69.7296 76.9851 69.6979 76.7272 69.7416 76.4766Z" fill="white" stroke="black"/>
</g>
<defs>
<clipPath id="clip0_2820_7205">
<rect width="50" height="50" fill="white" transform="translate(36 90.2578) rotate(-23.9008)"/>
</clipPath>
</defs>
</svg>
