<svg width="130" height="130" viewBox="0 0 130 130" fill="none" xmlns="http://www.w3.org/2000/svg">
<path d="M21.7533 57.7177C22.1148 57.3124 22.5527 56.9822 23.0418 56.7461C23.5309 56.5099 24.0618 56.3724 24.6041 56.3414C25.1464 56.3105 25.6894 56.3866 26.2023 56.5655C26.7151 56.7444 27.1877 57.0225 27.5931 57.3841L40.7929 69.1571L35.2865 75.3308L22.0867 63.5578C21.6814 63.1962 21.3512 62.7583 21.115 62.2692C20.8789 61.78 20.7414 61.2491 20.7104 60.7068C20.6795 60.1645 20.7556 59.6214 20.9346 59.1085C21.1135 58.5957 21.3917 58.1231 21.7533 57.7177Z" fill="white"/>
<path d="M35.3187 75.9067L21.8151 63.8621C21.3697 63.4648 21.0069 62.9838 20.7474 62.4463C20.4879 61.9089 20.3369 61.3256 20.3028 60.7297C20.2688 60.1339 20.3524 59.5372 20.549 58.9737C20.7455 58.4102 21.0511 57.8909 21.4484 57.4455C21.8456 57.0001 22.3267 56.6373 22.8641 56.3778C23.4016 56.1183 23.9849 55.9672 24.5807 55.9332C25.1766 55.8991 25.7733 55.9828 26.3368 56.1793C26.9003 56.3759 27.4196 56.6815 27.865 57.0787L41.3701 69.1237L35.3187 75.9067ZM24.8437 56.7425C24.7714 56.7425 24.6989 56.7445 24.6262 56.7486C23.8901 56.7908 23.1831 57.0504 22.5945 57.4944C22.006 57.9384 21.5623 58.547 21.3196 59.2432C21.0769 59.9394 21.0461 60.692 21.2311 61.4057C21.416 62.1194 21.8085 62.7622 22.3588 63.2529L35.2538 74.7541L40.2163 69.1904L27.3213 57.6891C26.6411 57.0786 25.759 56.7413 24.8449 56.7425H24.8437Z" fill="#333333"/>
<path d="M94.7478 75.3301L89.2417 69.1566L102.441 57.3836C103.26 56.6535 104.335 56.2784 105.43 56.341C106.526 56.4036 107.551 56.8986 108.281 57.7173C109.011 58.5359 109.386 59.6111 109.324 60.7063C109.261 61.8014 108.766 62.8269 107.948 63.5571L94.7478 75.3301Z" fill="white"/>
<path d="M94.7161 75.9067L88.6663 69.1237L102.171 57.0787C103.071 56.2765 104.252 55.8644 105.455 55.9332C106.659 56.002 107.785 56.546 108.588 57.4455C109.39 58.345 109.802 59.5264 109.733 60.7297C109.664 61.9331 109.121 63.0598 108.221 63.8621L94.7161 75.9067ZM89.8198 69.1898L94.7822 74.7535L107.677 63.2529C108.043 62.9271 108.34 62.5325 108.553 62.0916C108.766 61.6508 108.89 61.1723 108.918 60.6836C108.946 60.1949 108.877 59.7054 108.716 59.2432C108.554 58.781 108.304 58.3551 107.978 57.9898C107.652 57.6245 107.257 57.3269 106.817 57.1141C106.376 56.9013 105.897 56.7774 105.409 56.7494C104.92 56.7215 104.43 56.7902 103.968 56.9514C103.506 57.1126 103.08 57.3633 102.715 57.6892L89.8198 69.1898Z" fill="#333333"/>
<path d="M100.245 82.9879C103.19 96.0267 107.221 104.415 105.213 109.233C104.158 111.765 101.993 113.889 98.4079 113.889C92.8198 113.889 92.8198 107.299 87.2313 107.299C81.6429 107.299 81.6439 113.889 76.0561 113.889C70.4683 113.889 70.4689 107.299 64.8817 107.299C59.2945 107.299 59.2942 113.889 53.7067 113.889C48.1192 113.889 48.1195 107.299 42.5323 107.299C36.9451 107.299 36.9457 113.889 31.3591 113.889C28.0421 113.889 26.167 111.935 24.9779 109.678C22.1202 104.254 28.7804 92.3195 31.3591 81.7951C34.2083 70.1657 33.9683 55.6803 34.3506 46.9439C35.088 30.0962 48.0202 16.4092 64.8853 16.4092C81.7505 16.4092 94.1917 30.1248 95.4201 46.9439C96.0823 56.0111 97.5501 71.052 100.245 82.9879Z" fill="white"/>
<path d="M98.4079 114.301C95.4228 114.301 93.9401 112.552 92.5054 110.859C91.132 109.239 89.8347 107.709 87.2314 107.709C84.628 107.709 83.3325 109.239 81.9579 110.859C80.5236 112.55 79.0405 114.301 76.0561 114.301C73.0716 114.301 71.5889 112.552 70.1548 110.859C68.7814 109.239 67.4841 107.709 64.8817 107.709C62.2792 107.709 60.9829 109.239 59.6085 110.859C58.1742 112.55 56.6914 114.301 53.7067 114.301C50.722 114.301 49.2386 112.552 47.807 110.861C46.4336 109.241 45.1366 107.711 42.5338 107.711C39.9311 107.711 38.635 109.241 37.2613 110.861C35.8276 112.552 34.3448 114.303 31.3607 114.303C28.3924 114.303 26.1859 112.853 24.6148 109.871C22.6224 106.09 25.0153 99.4041 27.5493 92.3268C28.8075 88.8112 30.1079 85.1761 30.9607 81.6998C33.2394 72.399 33.5279 61.4704 33.7594 52.6886C33.8139 50.6116 33.8657 48.6494 33.9421 46.9284C34.3076 38.5889 37.6234 30.8272 43.2801 25.0725C46.0915 22.1913 49.4527 19.9038 53.1644 18.3454C56.8761 16.7871 60.8628 15.9895 64.8884 16.0001C68.8879 15.9906 72.848 16.7906 76.5303 18.3519C80.2125 19.9132 83.5407 22.2035 86.3145 25.085C91.8405 30.7745 95.2212 38.5283 95.834 46.9165C96.4247 55.0047 97.8355 70.434 100.65 82.8999C101.605 87.128 102.673 90.8626 103.616 94.1577C105.584 101.039 107.007 106.01 105.596 109.394C104.83 111.226 102.881 114.301 98.4079 114.301ZM87.2314 106.887C90.2164 106.887 91.6995 108.636 93.1338 110.329C94.5075 111.949 95.8048 113.478 98.4079 113.478C102.403 113.478 104.148 110.72 104.833 109.076C106.133 105.957 104.742 101.103 102.821 94.3828C101.877 91.077 100.803 87.3308 99.8437 83.0802C97.0171 70.5613 95.6016 55.0861 95.0095 46.9753C93.7537 29.7852 80.8032 16.8222 64.885 16.8222C48.7336 16.8222 35.5016 30.0614 34.7606 46.9631C34.6856 48.6768 34.6338 50.6353 34.5778 52.7087C34.3576 61.0644 34.0557 72.5074 31.756 81.8944C30.8943 85.4119 29.5855 89.0679 28.3202 92.6034C25.8493 99.5055 23.5155 106.026 25.3391 109.487C26.7543 112.172 28.7223 113.477 31.3561 113.477C33.9586 113.477 35.2549 111.948 36.6286 110.328C38.0624 108.636 39.5451 106.886 42.5293 106.886C45.5134 106.886 46.9968 108.635 48.4305 110.328C49.8039 111.948 51.1009 113.477 53.7036 113.477C56.3064 113.477 57.604 111.947 58.9771 110.328C60.4114 108.636 61.8942 106.886 64.8786 106.886C67.8631 106.886 69.3461 108.635 70.7799 110.328C72.1533 111.948 73.4499 113.477 76.053 113.477C78.6561 113.477 79.9534 111.947 81.3268 110.328C82.7639 108.637 84.2466 106.887 87.2314 106.887Z" fill="#333333"/>
<path d="M53.4113 48.9139C55.2806 48.9139 56.7959 47.3985 56.7959 45.5292C56.7959 43.6599 55.2806 42.1445 53.4113 42.1445C51.542 42.1445 50.0266 43.6599 50.0266 45.5292C50.0266 47.3985 51.542 48.9139 53.4113 48.9139Z" fill="#333333"/>
<path d="M76.6205 48.9139C78.4898 48.9139 80.0052 47.3985 80.0052 45.5292C80.0052 43.6599 78.4898 42.1445 76.6205 42.1445C74.7512 42.1445 73.2358 43.6599 73.2358 45.5292C73.2358 47.3985 74.7512 48.9139 76.6205 48.9139Z" fill="#333333"/>
<path d="M71.078 54.6641C71.2734 54.6636 71.4664 54.7067 71.643 54.7902C71.8196 54.8736 71.9754 54.9955 72.099 55.1467C72.2226 55.298 72.3109 55.4749 72.3576 55.6646C72.4042 55.8543 72.408 56.0521 72.3686 56.2434C71.6431 59.6369 68.6273 61.77 65.0169 61.77C61.4065 61.77 58.3907 59.6378 57.6652 56.2434C57.6258 56.052 57.6295 55.8543 57.6762 55.6646C57.7229 55.4748 57.8112 55.2979 57.9349 55.1466C58.0585 54.9953 58.2143 54.8735 58.391 54.7901C58.5676 54.7066 58.7607 54.6635 58.9561 54.6641H71.078Z" fill="white"/>
<path d="M65.0167 62.1822C61.127 62.1822 58.011 59.8304 57.2623 56.3297C57.209 56.0805 57.2123 55.8225 57.272 55.5747C57.3316 55.327 57.4462 55.0957 57.6071 54.8981C57.7693 54.6966 57.9747 54.5341 58.2082 54.4226C58.4416 54.3111 58.6971 54.2534 58.9558 54.2539H71.0787C71.3374 54.2535 71.5929 54.3112 71.8263 54.4227C72.0598 54.5342 72.2652 54.6967 72.4275 54.8981C72.5883 55.0958 72.7028 55.327 72.7625 55.5748C72.8222 55.8225 72.8255 56.0805 72.7723 56.3297C72.0224 59.8304 68.9054 62.1822 65.0167 62.1822ZM58.9552 55.0763C58.8193 55.0762 58.6851 55.1066 58.5625 55.1652C58.4399 55.2238 58.332 55.3092 58.2467 55.415C58.1632 55.5175 58.1036 55.6374 58.0726 55.7659C58.0415 55.8945 58.0397 56.0283 58.0673 56.1576C58.7323 59.2685 61.5248 61.3586 65.0161 61.3586C68.5073 61.3586 71.2999 59.2685 71.9651 56.1576C71.9926 56.0283 71.9907 55.8944 71.9595 55.7659C71.9284 55.6373 71.8688 55.5174 71.7851 55.415C71.6999 55.3092 71.5921 55.2238 71.4695 55.1652C71.3469 55.1065 71.2128 55.0762 71.0769 55.0763H58.9552Z" fill="#333333"/>
</svg>
