<svg width="200" height="170" viewBox="0 0 200 170" fill="none" xmlns="http://www.w3.org/2000/svg">
<g clip-path="url(#clip0_1443_2559)">
<path d="M199.083 117.21C193.62 89.7458 161.617 67.7958 155.375 39.1765C144.031 2.76496 106.638 -2.99177 82.339 12.8217C43.8377 37.8784 84.9106 44.0964 9.42202 103.379C-9.21781 118.017 -3.27832 182.633 55.3615 167.804C86.9189 159.823 96.5122 158.704 110.707 157.39C146.485 154.078 208.252 163.311 199.083 117.21Z" fill="#F5F5F5"/>
<path d="M156.341 124.092L101.042 153.211L45.8271 124.092V80.1201H156.341V124.092Z" fill="white"/>
<path d="M101.042 153.658C100.969 153.659 100.897 153.641 100.833 153.606L45.6193 124.487C45.5475 124.449 45.4874 124.393 45.4453 124.324C45.4033 124.254 45.3809 124.175 45.3806 124.094V80.1204C45.3806 80.002 45.4278 79.8884 45.5118 79.8046C45.5958 79.7209 45.7098 79.6738 45.8286 79.6738H156.341C156.46 79.6738 156.574 79.7209 156.658 79.8046C156.742 79.8884 156.789 80.002 156.789 80.1204V124.093C156.789 124.174 156.767 124.253 156.725 124.322C156.683 124.391 156.622 124.448 156.551 124.486L101.252 153.605C101.187 153.64 101.116 153.658 101.042 153.658ZM46.2751 123.824L101.042 152.707L155.893 123.824V80.5671H46.2751V123.824Z" fill="#333333"/>
<path d="M156.341 70.685L101.042 41.5659L125.892 29.624L181.19 58.7435L156.341 70.685Z" fill="white"/>
<path d="M156.341 71.1316C156.268 71.1316 156.197 71.114 156.132 71.0801L100.833 41.9606C100.76 41.922 100.699 41.8638 100.657 41.7926C100.615 41.7215 100.593 41.64 100.595 41.5574C100.596 41.4748 100.621 41.3942 100.665 41.3246C100.71 41.255 100.773 41.1991 100.848 41.1632L125.697 29.2213C125.76 29.1908 125.83 29.1755 125.9 29.1768C125.97 29.1781 126.039 29.1959 126.101 29.2288L181.4 58.3483C181.473 58.3869 181.534 58.445 181.576 58.5162C181.618 58.5874 181.64 58.6688 181.638 58.7514C181.637 58.834 181.612 58.9146 181.568 58.9841C181.523 59.0537 181.46 59.1095 181.385 59.1454L156.536 71.0873C156.475 71.1165 156.409 71.1317 156.341 71.1316ZM102.036 41.5833L156.351 70.184L180.197 58.7245L125.882 30.1245L102.036 41.5833Z" fill="#333333"/>
<path d="M45.8272 70.685L101.126 41.5659L76.2769 29.624L20.978 58.7435L45.8272 70.685Z" fill="white"/>
<path d="M45.8272 71.1316C45.7598 71.1316 45.6933 71.1165 45.6326 71.0873L20.7848 59.1454C20.7102 59.1095 20.647 59.0537 20.6023 58.9841C20.5576 58.9146 20.5331 58.834 20.5316 58.7514C20.53 58.6688 20.5515 58.5874 20.5937 58.5162C20.6358 58.445 20.6969 58.3869 20.7701 58.3483L76.069 29.2288C76.1309 29.1959 76.1998 29.1781 76.27 29.1768C76.3402 29.1755 76.4097 29.1908 76.4728 29.2213L101.322 41.1632C101.397 41.1991 101.46 41.255 101.505 41.3246C101.549 41.3942 101.574 41.4748 101.575 41.5574C101.577 41.64 101.555 41.7215 101.513 41.7926C101.471 41.8638 101.41 41.922 101.337 41.9606L46.0379 71.0801C45.9729 71.1142 45.9006 71.1319 45.8272 71.1316ZM21.9717 58.7253L45.8178 70.1848L100.132 41.5841L76.2861 30.1245L21.9717 58.7253Z" fill="#333333"/>
<path d="M45.8271 70.6846L101.126 99.8041L72.6931 115.319L17.3943 86.1994L45.8271 70.6846Z" fill="white"/>
<path d="M72.6932 115.765C72.6203 115.765 72.5484 115.748 72.4839 115.714L17.1851 86.594C17.1137 86.5563 17.0539 86.5 17.012 86.4311C16.9701 86.3622 16.9476 86.2833 16.947 86.2027C16.9464 86.1221 16.9677 86.0429 17.0086 85.9734C17.0495 85.9039 17.1085 85.8468 17.1794 85.808L45.6122 70.2932C45.6771 70.2577 45.7499 70.2388 45.8239 70.2383C45.898 70.2378 45.971 70.2557 46.0365 70.2903L101.335 99.4098C101.407 99.4476 101.467 99.5039 101.508 99.5728C101.55 99.6417 101.573 99.7206 101.573 99.8011C101.574 99.8817 101.553 99.9609 101.512 100.03C101.471 100.1 101.412 100.157 101.341 100.196L72.9082 115.711C72.8423 115.747 72.7683 115.765 72.6932 115.765ZM18.3405 86.1924L72.6893 114.812L100.18 99.8111L45.8311 71.1918L18.3405 86.1924Z" fill="#333333"/>
<path d="M156.341 70.6846L101.042 99.8041L129.475 115.319L184.774 86.1994L156.341 70.6846Z" fill="white"/>
<path d="M129.476 115.765C129.401 115.765 129.327 115.747 129.261 115.711L100.828 100.196C100.757 100.157 100.698 100.1 100.658 100.03C100.617 99.9609 100.595 99.8817 100.596 99.8011C100.597 99.7206 100.619 99.6417 100.661 99.5728C100.703 99.5039 100.763 99.4476 100.834 99.4098L156.133 70.2903C156.198 70.2557 156.271 70.2378 156.345 70.2383C156.419 70.2388 156.492 70.2577 156.557 70.2932L184.99 85.808C185.061 85.8468 185.12 85.9039 185.161 85.9734C185.202 86.0429 185.223 86.1221 185.222 86.2027C185.222 86.2833 185.199 86.3622 185.157 86.4311C185.115 86.5 185.056 86.5563 184.984 86.594L129.685 115.714C129.621 115.748 129.549 115.765 129.476 115.765ZM101.99 99.8111L129.48 114.812L183.83 86.1924L156.339 71.1918L101.99 99.8111Z" fill="#333333"/>
<path d="M101.126 41.5654L45.8271 70.6846L101.042 99.8041L156.341 70.6846L101.126 41.5654Z" fill="#333333"/>
<path d="M101.49 99.8037H100.594V153.212H101.49V99.8037Z" fill="#333333"/>
<path d="M70.0598 68.0423C69.9856 68.0423 69.9133 68.0192 69.853 67.9762C69.7755 67.9214 69.7229 67.8382 69.7069 67.7448C69.6909 67.6514 69.7128 67.5554 69.7677 67.4781C69.834 67.3849 76.3107 58.0495 69.0804 49.5387C67.8007 48.0245 66.2043 46.8077 64.4032 45.9735C62.6021 45.1393 60.6398 44.7079 58.6538 44.7095H58.5564C59.243 47.0877 59.1204 49.2021 58.1482 50.8243C57.7339 51.5573 57.1226 52.1604 56.3831 52.5656C55.6436 52.9709 54.8052 53.1622 53.9625 53.1181C53.265 53.0611 52.5992 52.8026 52.0468 52.3741C51.4943 51.9456 51.0792 51.3658 50.8523 50.7056C50.0571 48.6376 50.8881 46.6325 53.0785 45.3401C54.466 44.5773 56.0078 44.1351 57.5899 44.0464C57.0752 42.6859 56.406 41.3887 55.5952 40.1801C52.9846 36.2048 48.2266 33.453 42.5408 32.6301C37.7223 31.933 33.1044 32.7541 30.7747 34.7214C30.7022 34.7826 30.6082 34.8125 30.5134 34.8047C30.4187 34.7968 30.331 34.7517 30.2696 34.6794C30.2082 34.607 30.1782 34.5133 30.1861 34.4189C30.194 34.3244 30.2392 34.237 30.3117 34.1758C32.7909 32.0824 37.6313 31.1974 42.6437 31.9248C48.5326 32.7773 53.4716 35.6439 56.1951 39.7903C57.0781 41.1053 57.7963 42.5231 58.3338 44.0121C60.4762 43.9608 62.6028 44.3893 64.557 45.2662C66.5112 46.143 68.2432 47.4458 69.6255 49.0785C77.2202 58.0177 70.4199 67.7954 70.3504 67.8933C70.3173 67.9393 70.2737 67.9768 70.2231 68.0027C70.1726 68.0286 70.1166 68.0422 70.0598 68.0423ZM57.8225 44.7356C56.2886 44.8008 54.7906 45.2183 53.4451 45.9554C51.5543 47.0709 50.8541 48.7094 51.5232 50.4502C51.7044 50.9836 52.0377 51.4527 52.4822 51.8002C52.9267 52.1477 53.4632 52.3584 54.026 52.4067C54.7345 52.4384 55.438 52.2729 56.0576 51.9287C56.6773 51.5846 57.1887 51.0754 57.5347 50.458C58.427 48.9681 58.5087 46.9876 57.8214 44.7356H57.8225Z" fill="#333333"/>
<path d="M24.5897 40.4815C23.9807 40.6639 23.3243 40.6021 22.7604 40.3092C22.1964 40.0164 21.7694 39.5156 21.5703 38.9135C21.3711 38.3114 21.4156 37.6556 21.6942 37.0857C21.9727 36.5158 22.4635 36.0769 23.0618 35.8623C23.6602 35.6477 24.3189 35.6745 24.8977 35.937C25.4765 36.1994 25.9297 36.6768 26.1608 37.2674C26.3919 37.858 26.3826 38.5153 26.135 39.0992C25.8873 39.6831 25.4208 40.1475 24.8348 40.3936C24.7547 40.4274 24.6729 40.4567 24.5897 40.4815ZM23.3981 36.5113C23.34 36.5287 23.283 36.5492 23.2272 36.5727C22.8148 36.7461 22.4867 37.073 22.3126 37.484C22.1385 37.895 22.1322 38.3576 22.2951 38.7731C22.4579 39.1887 22.7771 39.5244 23.1846 39.7088C23.5921 39.8932 24.0556 39.9117 24.4766 39.7603C24.8975 39.609 25.2426 39.2998 25.4383 38.8986C25.6339 38.4973 25.6648 38.0358 25.5242 37.6122C25.3836 37.1887 25.0827 36.8366 24.6856 36.6309C24.2884 36.4253 23.8265 36.3823 23.3981 36.5113Z" fill="#333333"/>
<path d="M24.5855 34.8827C24.0094 35.0542 23.3901 35.0073 22.8466 34.7511C22.3031 34.4949 21.8738 34.0474 21.6412 33.4946C21.4547 33.0515 21.4042 32.5632 21.4961 32.0915C21.588 31.6197 21.8181 31.1857 22.1574 30.8444C22.4967 30.5031 22.9298 30.2697 23.4021 30.1738C23.8744 30.078 24.3646 30.1239 24.8108 30.3058C25.2569 30.4877 25.6389 30.7975 25.9084 31.1958C26.178 31.5942 26.323 32.0633 26.3251 32.5439C26.3272 33.0244 26.1864 33.4948 25.9204 33.8955C25.6544 34.2963 25.2751 34.6094 24.8306 34.7952C24.7505 34.8286 24.6687 34.8578 24.5855 34.8827ZM23.3954 30.9121C23.3366 30.9297 23.2789 30.9503 23.2223 30.9739C22.8019 31.15 22.4688 31.4853 22.2962 31.9061C22.1237 32.3269 22.1258 32.7988 22.302 33.2181C22.4306 33.5237 22.6452 33.7857 22.9199 33.9723C23.1947 34.1589 23.5178 34.2621 23.8501 34.2694C24.1824 34.2768 24.5098 34.188 24.7926 34.0138C25.0754 33.8395 25.3014 33.5874 25.4435 33.2877C25.5855 32.9881 25.6375 32.6538 25.593 32.3254C25.5485 31.9969 25.4095 31.6884 25.1929 31.437C24.9762 31.1856 24.6911 31.0023 24.3721 30.9091C24.0531 30.8158 23.7139 30.8171 23.3954 30.9121Z" fill="#333333"/>
<path d="M23.8899 37.41C25.6498 37.41 27.0765 36.4599 27.0765 35.288C27.0765 34.1161 25.6498 33.166 23.8899 33.166C22.13 33.166 20.7034 34.1161 20.7034 35.288C20.7034 36.4599 22.13 37.41 23.8899 37.41Z" fill="white"/>
<path d="M25.3003 37.5658C24.8434 37.7004 24.3694 37.7683 23.893 37.7673C21.9048 37.7673 20.3452 36.6812 20.3452 35.2909C20.3452 33.9007 21.9001 32.8106 23.8876 32.8084C24.7541 32.7919 25.6066 33.0278 26.3406 33.4873C26.6703 33.6585 26.9465 33.9165 27.1395 34.2333C27.3324 34.55 27.4345 34.9135 27.4349 35.284C27.4352 35.6546 27.3337 36.0182 27.1413 36.3353C26.949 36.6524 26.6732 36.9109 26.3438 37.0827C26.0219 37.2944 25.6702 37.4572 25.3003 37.5658ZM22.6979 33.6931C21.7403 33.9789 21.0616 34.596 21.0619 35.2891C21.0619 36.2456 22.3581 37.0527 23.893 37.0513C24.618 37.0665 25.3318 36.8709 25.9471 36.4882C26.1779 36.3822 26.3733 36.2125 26.5103 35.9991C26.6472 35.7857 26.7198 35.5377 26.7196 35.2843C26.7194 35.031 26.6463 34.7831 26.509 34.5699C26.3717 34.3568 26.1759 34.1874 25.945 34.0818C25.3292 33.7 24.6151 33.5055 23.8901 33.5223C23.4865 33.5213 23.0849 33.5788 22.6979 33.6931Z" fill="#333333"/>
<path d="M24.6714 37.345L24.5961 33.2182L23.5669 33.1768L23.4949 37.3932L24.6714 37.345Z" fill="#333333"/>
<path d="M19.6622 36.1853C19.8439 36.1853 19.9912 36.0384 19.9912 35.8573C19.9912 35.6761 19.8439 35.5293 19.6622 35.5293C19.4805 35.5293 19.3333 35.6761 19.3333 35.8573C19.3333 36.0384 19.4805 36.1853 19.6622 36.1853Z" fill="#333333"/>
<path d="M19.9191 34.4304C20.1008 34.4304 20.248 34.2836 20.248 34.1024C20.248 33.9213 20.1008 33.7744 19.9191 33.7744C19.7374 33.7744 19.5901 33.9213 19.5901 34.1024C19.5901 34.2836 19.7374 34.4304 19.9191 34.4304Z" fill="#333333"/>
<path d="M126.367 47.4362C126.291 47.4362 126.216 47.4116 126.154 47.3662C126.093 47.3207 126.047 47.2567 126.025 47.1836C124.836 42.758 124.519 38.1448 125.091 33.5989C126.017 26.9532 129.693 18.2313 141.945 14.4122C143.669 13.8596 145.437 13.4554 147.23 13.2042C147.807 9.60943 150.003 5.70991 154.915 3.01949C166.584 -3.37323 174.466 2.36242 174.544 2.42102C174.62 2.47788 174.67 2.56252 174.684 2.65633C174.697 2.75013 174.673 2.84542 174.616 2.92123C174.558 2.99704 174.474 3.04716 174.38 3.06056C174.285 3.07396 174.19 3.04955 174.114 2.99269C174.039 2.93695 166.506 -2.51572 155.26 3.64618C150.671 6.16046 148.57 9.76914 147.973 13.1191C153.376 12.5885 155.964 14.3857 157.126 15.7431C157.844 16.5594 158.306 17.5684 158.453 18.6445C158.601 19.7205 158.428 20.8161 157.955 21.7946C157.581 22.5855 156.976 23.2449 156.219 23.6856C155.462 24.1263 154.588 24.3277 153.714 24.2631C150.696 24.0866 148.199 21.5556 147.352 17.8147C147.073 16.5484 146.999 15.2456 147.132 13.9559C145.445 14.1975 143.782 14.5789 142.159 15.096C132.61 18.0727 127.108 24.3321 125.801 33.6993C125.24 38.142 125.549 42.6508 126.71 46.9764C126.726 47.0298 126.73 47.0863 126.721 47.1414C126.711 47.1964 126.689 47.2485 126.656 47.2935C126.622 47.3384 126.579 47.3749 126.529 47.4001C126.479 47.4252 126.423 47.4383 126.367 47.4383V47.4362ZM147.863 13.8666C147.713 15.1318 147.777 16.4129 148.051 17.6571C148.826 21.0793 151.065 23.3921 153.756 23.5496C154.489 23.602 155.221 23.4322 155.856 23.0624C156.491 22.6925 156.999 22.14 157.313 21.4773C157.723 20.624 157.872 19.6694 157.742 18.7324C157.611 17.7953 157.207 16.9173 156.58 16.2076C154.904 14.2471 151.846 13.4553 147.863 13.8666Z" fill="#333333"/>
<path d="M182.891 6.0323C182.409 6.03129 181.936 5.89422 181.528 5.63692C181.12 5.37961 180.794 5.01256 180.586 4.57811C180.379 4.14367 180.298 3.65955 180.355 3.18163C180.412 2.7037 180.602 2.25146 180.906 1.87709C181.209 1.50272 181.612 1.22149 182.069 1.06585C182.526 0.910214 183.017 0.886513 183.487 0.997486C183.957 1.10846 184.385 1.34958 184.723 1.69303C185.062 2.03647 185.295 2.46823 185.398 2.93849C185.478 3.31126 185.474 3.69723 185.385 4.06812C185.297 4.43902 185.126 4.78545 184.886 5.08206C184.645 5.37867 184.342 5.61794 183.996 5.78236C183.651 5.94678 183.274 6.03217 182.891 6.0323ZM182.897 1.64329C182.516 1.64329 182.144 1.76115 181.833 1.98063C181.522 2.20012 181.286 2.51042 181.159 2.86878C181.033 3.22714 181.02 3.61591 181.124 3.9815C181.228 4.3471 181.444 4.67152 181.74 4.91006C182.037 5.1486 182.401 5.28951 182.781 5.31337C183.162 5.33723 183.54 5.24287 183.864 5.04329C184.189 4.84371 184.443 4.54874 184.592 4.19902C184.741 3.84931 184.778 3.46208 184.697 3.09069C184.61 2.6798 184.383 2.31149 184.055 2.04784C183.727 1.78419 183.318 1.64131 182.897 1.64329Z" fill="#333333"/>
<path d="M181.812 11.864C181.156 11.8639 180.524 11.6128 180.047 11.1624C179.57 10.7119 179.285 10.0963 179.25 9.44242C179.215 8.78851 179.432 8.146 179.858 7.64717C180.283 7.14833 180.884 6.83113 181.537 6.76087C182.19 6.69061 182.846 6.87264 183.368 7.26947C183.89 7.66631 184.24 8.24776 184.346 8.89412C184.451 9.54048 184.304 10.2026 183.935 10.7441C183.566 11.2856 183.002 11.6653 182.36 11.805C182.18 11.8442 181.997 11.864 181.812 11.864ZM181.821 7.47462C181.689 7.47468 181.557 7.48894 181.427 7.51714C180.969 7.61738 180.568 7.88873 180.304 8.27537C180.041 8.662 179.937 9.13451 180.012 9.59567C180.088 10.0568 180.338 10.4716 180.711 10.7546C181.084 11.0376 181.551 11.1673 182.017 11.117C182.483 11.0667 182.912 10.8403 183.216 10.4844C183.519 10.1284 183.675 9.66997 183.65 9.20336C183.624 8.73674 183.421 8.29746 183.081 7.9759C182.741 7.65433 182.29 7.47494 181.821 7.47462Z" fill="#333333"/>
<path d="M185.661 7.07572C185.887 5.85533 184.584 4.59266 182.752 4.2555C180.919 3.91833 179.25 4.63434 179.024 5.85473C178.799 7.07513 180.101 8.33778 181.934 8.67495C183.766 9.01211 185.435 8.29612 185.661 7.07572Z" fill="white"/>
<path d="M182.836 9.11649C182.512 9.11597 182.188 9.08607 181.869 9.02716C180.967 8.87808 180.129 8.47005 179.457 7.85309C179.163 7.60285 178.937 7.2827 178.8 6.92224C178.662 6.56178 178.619 6.17264 178.672 5.79079C178.759 5.41507 178.939 5.0672 179.196 4.77931C179.454 4.49143 179.779 4.27282 180.144 4.14366C180.996 3.82266 181.921 3.74013 182.817 3.905C183.713 4.06987 184.547 4.47586 185.228 5.07906C185.522 5.3293 185.748 5.64945 185.886 6.00992C186.023 6.37038 186.067 6.75952 186.013 7.14136C185.926 7.51709 185.746 7.86496 185.489 8.15284C185.232 8.44072 184.906 8.65934 184.541 8.78849C184.001 9.01145 183.421 9.12302 182.836 9.11649ZM181.846 4.52954C181.36 4.52337 180.877 4.61537 180.427 4.80001C180.172 4.885 179.943 5.03196 179.76 5.22761C179.576 5.42326 179.445 5.6614 179.377 5.92049C179.348 6.18662 179.385 6.45587 179.486 6.70386C179.588 6.95185 179.749 7.17074 179.957 7.34073C180.536 7.84516 181.242 8.1848 181.998 8.32404C182.755 8.46329 183.535 8.397 184.257 8.13214C184.512 8.04716 184.741 7.90019 184.925 7.70455C185.108 7.5089 185.239 7.27075 185.307 7.01167C185.337 6.74552 185.299 6.47621 185.198 6.22819C185.097 5.98017 184.935 5.76129 184.727 5.59142C184.157 5.07255 183.447 4.73073 182.685 4.60779C182.409 4.55654 182.129 4.53035 181.848 4.52954H181.846Z" fill="#333333"/>
<path d="M181.929 4.17383L181.208 8.48494L182.272 8.72647L183.163 4.34997L181.929 4.17383Z" fill="#333333"/>
<path d="M186.249 8.81177C186.441 8.81177 186.597 8.65628 186.597 8.46448C186.597 8.27267 186.441 8.11719 186.249 8.11719C186.057 8.11719 185.901 8.27267 185.901 8.46448C185.901 8.65628 186.057 8.81177 186.249 8.81177Z" fill="#333333"/>
<path d="M186.856 7.03345C187.048 7.03345 187.204 6.87796 187.204 6.68616C187.204 6.49435 187.048 6.33887 186.856 6.33887C186.664 6.33887 186.508 6.49435 186.508 6.68616C186.508 6.87796 186.664 7.03345 186.856 7.03345Z" fill="#333333"/>
</g>
<defs>
<clipPath id="clip0_1443_2559">
<rect width="200" height="170" fill="white"/>
</clipPath>
</defs>
</svg>
