<svg width="231" height="75" viewBox="0 0 231 75" fill="none" xmlns="http://www.w3.org/2000/svg">
<path d="M115 19.5L175.5 47" stroke="white"/>
<path d="M175.277 46.9512L209.5 27.5" stroke="white"/>
<path d="M115 19L209 28" stroke="white"/>
<g clip-path="url(#clip0_2820_7203)">
<path d="M108.375 4.125C109.204 4.125 109.999 4.45424 110.585 5.04029C111.171 5.62634 111.5 6.4212 111.5 7.25V44.75C111.5 45.5788 111.171 46.3737 110.585 46.9597C109.999 47.5458 109.204 47.875 108.375 47.875H89.625C88.7962 47.875 88.0013 47.5458 87.4153 46.9597C86.8292 46.3737 86.5 45.5788 86.5 44.75V7.25C86.5 6.4212 86.8292 5.62634 87.4153 5.04029C88.0013 4.45424 88.7962 4.125 89.625 4.125H108.375ZM89.625 1C87.9674 1 86.3777 1.65848 85.2056 2.83058C84.0335 4.00269 83.375 5.5924 83.375 7.25V44.75C83.375 46.4076 84.0335 47.9973 85.2056 49.1694C86.3777 50.3415 87.9674 51 89.625 51H108.375C110.033 51 111.622 50.3415 112.794 49.1694C113.967 47.9973 114.625 46.4076 114.625 44.75V7.25C114.625 5.5924 113.967 4.00269 112.794 2.83058C111.622 1.65848 110.033 1 108.375 1L89.625 1Z" fill="white"/>
<path d="M99 44.75C99.8288 44.75 100.624 44.4208 101.21 43.8347C101.796 43.2487 102.125 42.4538 102.125 41.625C102.125 40.7962 101.796 40.0013 101.21 39.4153C100.624 38.8292 99.8288 38.5 99 38.5C98.1712 38.5 97.3763 38.8292 96.7903 39.4153C96.2042 40.0013 95.875 40.7962 95.875 41.625C95.875 42.4538 96.2042 43.2487 96.7903 43.8347C97.3763 44.4208 98.1712 44.75 99 44.75Z" fill="white"/>
</g>
<path d="M176.5 6.99744C176.499 6.16901 175.826 5.49859 174.997 5.5C174.169 5.50142 173.499 6.17414 173.5 7.00256L176.5 6.99744ZM173.986 34.082C174.572 34.6668 175.522 34.6652 176.107 34.0784L185.637 24.5161C186.221 23.9294 186.22 22.9796 185.633 22.3948C185.046 21.81 184.096 21.8117 183.512 22.3985L175.041 30.8982L166.541 22.4274C165.954 21.8427 165.005 21.8443 164.42 22.4311C163.835 23.0178 163.837 23.9676 164.423 24.5524L173.986 34.082ZM173.5 7.00256L173.544 33.0221L176.544 33.017L176.5 6.99744L173.5 7.00256Z" fill="white"/>
<line x1="160.235" y1="66.0084" x2="229.923" y2="24.7099" stroke="white" stroke-width="3"/>
<line x1="9.23527" y1="66.0084" x2="78.9234" y2="24.7099" stroke="white" stroke-width="3"/>
<path d="M9 65.5002L161.006 65.4999" stroke="white" stroke-width="3"/>
<defs>
<clipPath id="clip0_2820_7203">
<rect width="50" height="50" fill="white" transform="translate(74 1)"/>
</clipPath>
</defs>
</svg>
