<svg width="221" height="69" viewBox="0 0 221 69" fill="none" xmlns="http://www.w3.org/2000/svg">
<g clip-path="url(#clip0_2820_7204)">
<path d="M106 21.5L166.5 49" stroke="white"/>
<path d="M166.277 48.9512L200.5 29.5" stroke="white"/>
<path d="M106 21L200 30" stroke="white"/>
<g clip-path="url(#clip1_2820_7204)">
<path d="M99.375 6.125C100.204 6.125 100.999 6.45424 101.585 7.04029C102.171 7.62634 102.5 8.4212 102.5 9.25V46.75C102.5 47.5788 102.171 48.3737 101.585 48.9597C100.999 49.5458 100.204 49.875 99.375 49.875H80.625C79.7962 49.875 79.0013 49.5458 78.4153 48.9597C77.8292 48.3737 77.5 47.5788 77.5 46.75V9.25C77.5 8.4212 77.8292 7.62634 78.4153 7.04029C79.0013 6.45424 79.7962 6.125 80.625 6.125H99.375ZM80.625 3C78.9674 3 77.3777 3.65848 76.2056 4.83058C75.0335 6.00269 74.375 7.5924 74.375 9.25V46.75C74.375 48.4076 75.0335 49.9973 76.2056 51.1694C77.3777 52.3415 78.9674 53 80.625 53H99.375C101.033 53 102.622 52.3415 103.794 51.1694C104.967 49.9973 105.625 48.4076 105.625 46.75V9.25C105.625 7.5924 104.967 6.00269 103.794 4.83058C102.622 3.65848 101.033 3 99.375 3H80.625Z" fill="white"/>
<path d="M90 46.75C90.8288 46.75 91.6237 46.4208 92.2097 45.8347C92.7958 45.2487 93.125 44.4538 93.125 43.625C93.125 42.7962 92.7958 42.0013 92.2097 41.4153C91.6237 40.8292 90.8288 40.5 90 40.5C89.1712 40.5 88.3763 40.8292 87.7903 41.4153C87.2042 42.0013 86.875 42.7962 86.875 43.625C86.875 44.4538 87.2042 45.2487 87.7903 45.8347C88.3763 46.4208 89.1712 46.75 90 46.75Z" fill="white"/>
<line x1="112.97" y1="50.5009" x2="179.97" y2="46.5009" stroke="black"/>
</g>
<line x1="151.235" y1="68.0084" x2="220.923" y2="26.7099" stroke="white" stroke-width="3"/>
<line x1="0.235271" y1="68.0084" x2="69.9234" y2="26.7099" stroke="white" stroke-width="3"/>
<path d="M0 67.5002L152.006 67.4999" stroke="white" stroke-width="3"/>
</g>
<defs>
<clipPath id="clip0_2820_7204">
<rect width="221" height="69" fill="white"/>
</clipPath>
<clipPath id="clip1_2820_7204">
<rect width="50" height="50" fill="white" transform="translate(65 3)"/>
</clipPath>
</defs>
</svg>
