<svg width="21" height="20" viewBox="0 0 21 20" fill="none" xmlns="http://www.w3.org/2000/svg">
<path fill-rule="evenodd" clip-rule="evenodd" d="M10.5 1.66699C10.279 1.66699 10.0671 1.75479 9.91077 1.91107C9.75449 2.06735 9.6667 2.27931 9.6667 2.50033C9.6667 2.72134 9.75449 2.9333 9.91077 3.08958C10.0671 3.24586 10.279 3.33366 10.5 3.33366C11.9679 3.33395 13.3947 3.81871 14.559 4.71274C15.7233 5.60676 16.5599 6.86005 16.9391 8.27814C17.3183 9.69624 17.2189 11.1998 16.6562 12.5556C16.0936 13.9114 15.0992 15.0436 13.8273 15.7766C12.5555 16.5095 11.0773 16.8021 9.62208 16.6091C8.16691 16.4161 6.81613 15.7482 5.77933 14.709C4.74254 13.6699 4.07769 12.3176 3.88797 10.862C3.69824 9.40638 3.99424 7.92885 4.73003 6.65866L5.7442 7.67283C5.86074 7.78933 6.00921 7.86867 6.17084 7.90081C6.33246 7.93295 6.49999 7.91645 6.65224 7.85339C6.80449 7.79033 6.93463 7.68355 7.0262 7.54654C7.11777 7.40953 7.16666 7.24845 7.1667 7.08366V3.75033C7.1667 3.52931 7.0789 3.31735 6.92262 3.16107C6.76634 3.00479 6.55438 2.91699 6.33336 2.91699H3.00003C2.83524 2.91703 2.67416 2.96592 2.53715 3.05749C2.40014 3.14906 2.29336 3.2792 2.2303 3.43145C2.16724 3.5837 2.15074 3.75122 2.18288 3.91285C2.21502 4.07448 2.29436 4.22295 2.41086 4.33949L3.5192 5.44783C2.63435 6.8011 2.16425 8.38345 2.1667 10.0003C2.1667 14.6028 5.89753 18.3337 10.5 18.3337C15.1025 18.3337 18.8334 14.6028 18.8334 10.0003C18.8334 5.39783 15.1025 1.66699 10.5 1.66699Z" fill="#333333"/>
</svg>
