<svg width="32" height="32" viewBox="0 0 32 32" fill="none" xmlns="http://www.w3.org/2000/svg">
<path d="M16 21.333C18.2091 21.333 20 19.5421 20 17.333C20 15.1239 18.2091 13.333 16 13.333C13.7909 13.333 12 15.1239 12 17.333C12 19.5421 13.7909 21.333 16 21.333Z" stroke="white" stroke-width="2.4"/>
<path d="M13.0373 28.0001H18.9626C23.124 28.0001 25.2053 28.0001 26.7 27.0201C27.3449 26.5974 27.9003 26.0519 28.3346 25.4147C29.3333 23.9481 29.3333 21.9041 29.3333 17.8187C29.3333 13.7321 29.3333 11.6894 28.3346 10.2227C27.9003 9.58554 27.3449 9.04006 26.7 8.6174C25.74 7.98673 24.5373 7.7614 22.696 7.6814C21.8173 7.6814 21.0613 7.02806 20.8893 6.1814C20.7578 5.56122 20.4163 5.00544 19.9224 4.608C19.4285 4.21055 18.8126 3.99581 18.1786 4.00006H13.8213C12.504 4.00006 11.3693 4.9134 11.1106 6.1814C10.9386 7.02806 10.1826 7.6814 9.30396 7.6814C7.46396 7.7614 6.26129 7.98806 5.29996 8.6174C4.65545 9.04015 4.10046 9.58563 3.66663 10.2227C2.66663 11.6894 2.66663 13.7321 2.66663 17.8187C2.66663 21.9041 2.66663 23.9467 3.66529 25.4147C4.09729 26.0494 4.65196 26.5947 5.29996 27.0201C6.79463 28.0001 8.87596 28.0001 13.0373 28.0001Z" stroke="white" stroke-width="2.4"/>
<path d="M25.3333 13.333H24" stroke="white" stroke-width="2.4" stroke-linecap="round"/>
</svg>
